# MagicaVoxel @ Ephtracy

# group
o tree 1

# material
mtllib boom.mtl
usemtl palette

# normals
vn -1 0 0
vn 1 0 0
vn 0 0 1
vn 0 0 -1
vn 0 -1 0
vn 0 1 0

# texcoords
vt 0.986328 0.5
vt 0.994141 0.5

# verts
v -0.5 0 0.3
v -0.5 0 0.1
v -0.5 0 -0.3
v -0.5 0.1 0.3
v -0.5 0.1 0.2
v -0.5 0.2 -0.2
v -0.5 0.2 -0.3
v -0.5 0.3 0.2
v -0.5 0.3 0.1
v -0.5 0.7 0.2
v -0.5 0.7 0
v -0.5 0.8 0
v -0.5 0.8 -0.2
v -0.4 0.1 0.3
v -0.4 0.1 0.2
v -0.4 0.2 -0.2
v -0.4 0.2 -0.3
v -0.4 0.3 0.3
v -0.4 0.3 0.2
v -0.4 0.3 -0.2
v -0.4 0.3 -0.3
v -0.4 0.4 0.3
v -0.4 0.4 0.2
v -0.4 0.7 0.2
v -0.4 0.7 0
v -0.4 0.8 0
v -0.4 0.8 -0.2
v -0.4 0.9 0.2
v -0.4 0.9 0.1
v -0.4 1 -0.1
v -0.4 1 -0.2
v -0.4 1.1 0.1
v -0.4 1.1 0
v -0.4 1.1 -0.1
v -0.3 0.9 0.2
v -0.3 0.9 0.1
v -0.3 1.1 0.1
v -0.3 1.1 0
v -0.3 1.1 -0.1
v -0.3 1.2 0.2
v -0.3 1.2 0.1
v -0.3 1.5 0.1
v -0.3 1.5 0
v -0.3 1.5 -0.1
v -0.2 0.2 0.2
v -0.2 0.2 0.1
v -0.2 0.3 0.2
v -0.2 0.3 0.1
v -0.2 0.6 0.1
v -0.2 0.6 -0.1
v -0.2 0.8 0.1
v -0.2 0.8 0
v -0.2 0.9 0
v -0.2 0.9 -0.1
v -0.1 0.1 0.2
v -0.1 0.1 0.1
v -0.1 0.2 0.2
v -0.1 0.2 0.1
v 0 0.1 0.1
v 0 0.1 -0.1
v 0 0.2 0.1
v 0 0.2 -0.1
v 0 0.5 0
v 0 0.5 -0.1
v 0 0.6 0
v 0 0.6 -0.1
v 0.1 0.2 0.1
v 0.1 0.2 -0.1
v 0.1 0.5 0.1
v 0.1 0.5 0
v 0.1 0.5 -0.1
v 0.1 0.6 0.1
v 0.1 0.6 0
v 0.1 0.7 0.2
v 0.1 0.7 0
v 0.1 0.8 0.2
v 0.1 0.8 0
v 0.2 0.7 0
v 0.2 0.7 -0.1
v 0.2 0.8 0.2
v 0.2 0.8 0
v 0.2 0.9 0.2
v 0.2 0.9 0.1
v 0.2 0.9 0
v 0.2 0.9 -0.1
v 0.2 1 0.2
v 0.2 1 0.1
v 0.2 1 0
v 0.3 1 0.2
v 0.3 1 0.1
v 0.3 1 0
v 0.3 1.3 0.2
v 0.3 1.3 0
v -0.4 0.1 0.1
v -0.4 0.1 -0.1
v -0.4 0.3 0.1
v -0.4 0.6 0.1
v -0.4 0.6 0
v -0.4 0.6 -0.1
v -0.3 0.1 0.2
v -0.3 0.1 0.1
v -0.3 0.3 0.2
v -0.3 0.3 0.1
v -0.3 0.6 0.1
v -0.3 0.6 0
v -0.3 0.6 -0.1
v -0.3 0.8 0.1
v -0.3 0.8 0
v -0.3 0.9 0
v -0.3 0.9 -0.1
v -0.2 0.2 -0.2
v -0.2 0.2 -0.3
v -0.2 0.3 -0.2
v -0.2 0.3 -0.3
v -0.1 0.3 0.3
v -0.1 0.3 0.2
v -0.1 0.4 0.3
v -0.1 0.4 0.2
v -0.1 0.7 0.2
v -0.1 0.7 0.1
v -0.1 0.7 -0.1
v -0.1 0.7 -0.2
v -0.1 1 -0.1
v -0.1 1 -0.2
v -0.1 1.1 0
v -0.1 1.1 -0.1
v -0.1 1.2 0.2
v -0.1 1.2 0.1
v -0.1 1.5 0.1
v -0.1 1.5 0
v -0.1 1.5 -0.1
v 0 0.2 0.3
v 0 0.2 0.2
v 0 0.3 0.3
v 0 0.3 0.2
v 0.1 0 0.3
v 0.1 0 -0.3
v 0.1 0.1 0.2
v 0.1 0.1 -0.2
v 0.1 0.1 -0.3
v 0.1 0.2 0.3
v 0.1 0.2 0.2
v 0.1 0.2 -0.2
v 0.1 0.2 -0.3
v 0.1 0.6 -0.1
v 0.1 0.6 -0.2
v 0.1 0.7 -0.1
v 0.1 0.7 -0.2
v 0.2 0.1 0.2
v 0.2 0.1 -0.2
v 0.2 0.2 0.2
v 0.2 0.2 0.1
v 0.2 0.4 0.1
v 0.2 0.4 -0.1
v 0.2 0.5 0.2
v 0.2 0.5 0.1
v 0.2 0.5 -0.1
v 0.2 0.5 -0.2
v 0.2 0.6 -0.1
v 0.2 0.6 -0.2
v 0.3 0.4 0.1
v 0.3 0.4 -0.1
v 0.3 0.5 0.1
v 0.3 0.5 -0.1
v 0.4 0.5 0.2
v 0.4 0.5 0.1
v 0.4 0.5 -0.1
v 0.4 0.6 0.1
v 0.4 0.6 -0.1
v 0.4 0.8 0.2
v 0.4 0.8 0.1
v 0.5 0.6 0.1
v 0.5 0.6 -0.1
v 0.5 0.8 0.2
v 0.5 0.8 0.1
v 0.5 0.9 0
v 0.5 0.9 -0.1
v 0.5 1 0.2
v 0.5 1 0.1
v 0.5 1.3 0.2
v 0.5 1.3 0
v -0.5 0 0.3
v -0.5 0.1 0.3
v -0.4 0.1 0.3
v -0.4 0.3 0.3
v -0.4 0.4 0.3
v -0.2 0.3 0.3
v -0.2 0.4 0.3
v -0.1 0.3 0.3
v -0.1 0.4 0.3
v 0 0.2 0.3
v 0 0.3 0.3
v 0.1 0 0.3
v 0.1 0.2 0.3
v -0.5 0.1 0.2
v -0.5 0.3 0.2
v -0.5 0.7 0.2
v -0.4 0.1 0.2
v -0.4 0.3 0.2
v -0.4 0.4 0.2
v -0.4 0.7 0.2
v -0.4 0.9 0.2
v -0.3 0.9 0.2
v -0.3 1.2 0.2
v -0.2 0.4 0.2
v -0.2 1.2 0.2
v -0.1 0.3 0.2
v -0.1 0.4 0.2
v -0.1 0.6 0.2
v -0.1 0.7 0.2
v -0.1 1.2 0.2
v 0 0.2 0.2
v 0 0.3 0.2
v 0.1 0.1 0.2
v 0.1 0.2 0.2
v 0.1 0.6 0.2
v 0.1 0.7 0.2
v 0.1 0.8 0.2
v 0.2 0.1 0.2
v 0.2 0.2 0.2
v 0.2 0.5 0.2
v 0.2 0.8 0.2
v 0.2 0.9 0.2
v 0.2 1 0.2
v 0.3 0.5 0.2
v 0.3 0.8 0.2
v 0.3 0.9 0.2
v 0.3 1 0.2
v 0.3 1.3 0.2
v 0.4 0.5 0.2
v 0.4 0.8 0.2
v 0.4 1 0.2
v 0.4 1.3 0.2
v 0.5 0.8 0.2
v 0.5 1 0.2
v 0.5 1.3 0.2
v -0.4 0.9 0.1
v -0.4 1.1 0.1
v -0.3 0.9 0.1
v -0.3 1.1 0.1
v -0.3 1.2 0.1
v -0.3 1.5 0.1
v -0.2 1.2 0.1
v -0.1 1.2 0.1
v -0.1 1.5 0.1
v 0.2 0.4 0.1
v 0.2 0.5 0.1
v 0.3 0.4 0.1
v 0.3 0.5 0.1
v 0.4 0.6 0.1
v 0.4 0.8 0.1
v 0.5 0.6 0.1
v 0.5 0.8 0.1
v -0.5 0.7 0
v -0.5 0.8 0
v -0.4 0.7 0
v -0.4 0.8 0
v 0 0.5 0
v 0 0.6 0
v 0.1 0.5 0
v 0.1 0.6 0
v -0.4 0.1 -0.1
v -0.4 0.6 -0.1
v -0.3 0.1 -0.1
v -0.3 0.6 -0.1
v -0.3 0.9 -0.1
v -0.2 0.6 -0.1
v -0.2 0.9 -0.1
v -0.1 0.1 -0.1
v 0 0.1 -0.1
v 0 0.2 -0.1
v 0 0.5 -0.1
v 0 0.6 -0.1
v 0.1 0.2 -0.1
v 0.1 0.5 -0.1
v -0.3 0.1 0.2
v -0.3 0.3 0.2
v -0.2 0.2 0.2
v -0.2 0.3 0.2
v -0.1 0.1 0.2
v -0.1 0.2 0.2
v -0.4 0.1 0.1
v -0.4 0.3 0.1
v -0.4 0.6 0.1
v -0.3 0.1 0.1
v -0.3 0.3 0.1
v -0.3 0.6 0.1
v -0.3 0.8 0.1
v -0.2 0.2 0.1
v -0.2 0.3 0.1
v -0.2 0.6 0.1
v -0.2 0.8 0.1
v -0.1 0.1 0.1
v -0.1 0.2 0.1
v 0 0.1 0.1
v 0 0.2 0.1
v 0.1 0.2 0.1
v 0.1 0.5 0.1
v 0.1 0.6 0.1
v -0.3 0.8 0
v -0.3 0.9 0
v -0.2 0.8 0
v -0.2 0.9 0
v 0.1 0.7 0
v 0.1 0.8 0
v 0.2 0.7 0
v 0.2 0.8 0
v 0.2 0.9 0
v 0.2 1 0
v 0.3 1 0
v 0.3 1.3 0
v 0.4 0.9 0
v 0.4 1.3 0
v 0.5 0.9 0
v 0.5 1.3 0
v -0.4 1 -0.1
v -0.4 1.1 -0.1
v -0.3 1.1 -0.1
v -0.3 1.5 -0.1
v -0.2 1 -0.1
v -0.2 1.1 -0.1
v -0.1 1 -0.1
v -0.1 1.1 -0.1
v -0.1 1.5 -0.1
v 0.1 0.6 -0.1
v 0.1 0.7 -0.1
v 0.2 0.4 -0.1
v 0.2 0.5 -0.1
v 0.2 0.6 -0.1
v 0.2 0.7 -0.1
v 0.2 0.9 -0.1
v 0.3 0.4 -0.1
v 0.3 0.5 -0.1
v 0.4 0.5 -0.1
v 0.4 0.6 -0.1
v 0.4 0.9 -0.1
v 0.5 0.6 -0.1
v 0.5 0.9 -0.1
v -0.5 0.2 -0.2
v -0.5 0.8 -0.2
v -0.4 0.2 -0.2
v -0.4 0.3 -0.2
v -0.4 0.6 -0.2
v -0.4 0.8 -0.2
v -0.4 1 -0.2
v -0.3 0.3 -0.2
v -0.3 0.6 -0.2
v -0.2 0.2 -0.2
v -0.2 0.3 -0.2
v -0.2 0.7 -0.2
v -0.2 1 -0.2
v -0.1 0.7 -0.2
v -0.1 1 -0.2
v 0 0.2 -0.2
v 0 0.7 -0.2
v 0.1 0.1 -0.2
v 0.1 0.2 -0.2
v 0.1 0.5 -0.2
v 0.1 0.6 -0.2
v 0.1 0.7 -0.2
v 0.2 0.1 -0.2
v 0.2 0.5 -0.2
v 0.2 0.6 -0.2
v -0.5 0 -0.3
v -0.5 0.2 -0.3
v -0.4 0.2 -0.3
v -0.4 0.3 -0.3
v -0.3 0 -0.3
v -0.3 0.3 -0.3
v -0.2 0.2 -0.3
v -0.2 0.3 -0.3
v 0 0.1 -0.3
v 0 0.2 -0.3
v 0.1 0 -0.3
v 0.1 0.1 -0.3
v 0.1 0.2 -0.3
v -0.5 0 0.3
v 0.1 0 0.3
v -0.5 0 0.1
v -0.1 0 0.1
v -0.3 0 -0.1
v -0.1 0 -0.1
v -0.5 0 -0.3
v -0.3 0 -0.3
v 0.1 0 -0.3
v 0.1 0.1 0.2
v 0.2 0.1 0.2
v 0.1 0.1 -0.2
v 0.2 0.1 -0.2
v -0.2 0.2 0.2
v -0.1 0.2 0.2
v -0.2 0.2 0.1
v -0.1 0.2 0.1
v -0.3 0.3 0.2
v -0.2 0.3 0.2
v -0.3 0.3 0.1
v -0.2 0.3 0.1
v 0.2 0.4 0.1
v 0.3 0.4 0.1
v 0.2 0.4 -0.1
v 0.3 0.4 -0.1
v 0.2 0.5 0.2
v 0.3 0.5 0.2
v 0.4 0.5 0.2
v 0.2 0.5 0.1
v 0.3 0.5 0.1
v 0.4 0.5 0.1
v 0 0.5 0
v 0.1 0.5 0
v 0 0.5 -0.1
v 0.1 0.5 -0.1
v 0.3 0.5 -0.1
v 0.4 0.5 -0.1
v -0.4 0.6 0.1
v -0.3 0.6 0.1
v -0.2 0.6 0.1
v 0.1 0.6 0.1
v 0.4 0.6 0.1
v 0.5 0.6 0.1
v -0.4 0.6 0
v -0.3 0.6 0
v 0 0.6 0
v 0.1 0.6 0
v -0.4 0.6 -0.1
v -0.3 0.6 -0.1
v -0.2 0.6 -0.1
v 0 0.6 -0.1
v 0.4 0.6 -0.1
v 0.5 0.6 -0.1
v 0.4 0.8 0.2
v 0.5 0.8 0.2
v -0.3 0.8 0.1
v -0.2 0.8 0.1
v 0.4 0.8 0.1
v 0.5 0.8 0.1
v -0.3 0.8 0
v -0.2 0.8 0
v -0.3 0.9 0
v -0.2 0.9 0
v -0.3 0.9 -0.1
v -0.2 0.9 -0.1
v -0.5 0.1 0.3
v -0.4 0.1 0.3
v -0.5 0.1 0.2
v -0.4 0.1 0.2
v -0.3 0.1 0.2
v -0.1 0.1 0.2
v -0.4 0.1 0.1
v -0.3 0.1 0.1
v -0.1 0.1 0.1
v 0 0.1 0.1
v -0.4 0.1 -0.1
v -0.3 0.1 -0.1
v -0.1 0.1 -0.1
v 0 0.1 -0.1
v 0 0.2 0.3
v 0.1 0.2 0.3
v 0 0.2 0.2
v 0.1 0.2 0.2
v 0 0.2 0.1
v 0.1 0.2 0.1
v 0 0.2 -0.1
v 0.1 0.2 -0.1
v -0.5 0.2 -0.2
v -0.4 0.2 -0.2
v -0.2 0.2 -0.2
v 0 0.2 -0.2
v 0.1 0.2 -0.2
v -0.5 0.2 -0.3
v -0.4 0.2 -0.3
v -0.2 0.2 -0.3
v 0 0.2 -0.3
v 0.1 0.2 -0.3
v -0.1 0.3 0.3
v 0 0.3 0.3
v -0.1 0.3 0.2
v 0 0.3 0.2
v -0.4 0.3 -0.2
v -0.3 0.3 -0.2
v -0.2 0.3 -0.2
v -0.4 0.3 -0.3
v -0.3 0.3 -0.3
v -0.2 0.3 -0.3
v -0.4 0.4 0.3
v -0.2 0.4 0.3
v -0.1 0.4 0.3
v -0.4 0.4 0.2
v -0.2 0.4 0.2
v -0.1 0.4 0.2
v 0.1 0.6 -0.1
v 0.2 0.6 -0.1
v 0.1 0.6 -0.2
v 0.2 0.6 -0.2
v -0.5 0.7 0.2
v -0.4 0.7 0.2
v -0.1 0.7 0.2
v 0.1 0.7 0.2
v -0.1 0.7 0.1
v -0.5 0.7 0
v -0.4 0.7 0
v 0.1 0.7 0
v 0.2 0.7 0
v -0.1 0.7 -0.1
v 0 0.7 -0.1
v 0.1 0.7 -0.1
v 0.2 0.7 -0.1
v -0.1 0.7 -0.2
v 0 0.7 -0.2
v 0.1 0.7 -0.2
v 0.1 0.8 0.2
v 0.2 0.8 0.2
v -0.5 0.8 0
v -0.4 0.8 0
v 0.1 0.8 0
v 0.2 0.8 0
v -0.5 0.8 -0.2
v -0.4 0.8 -0.2
v -0.4 0.9 0.2
v -0.3 0.9 0.2
v -0.4 0.9 0.1
v -0.3 0.9 0.1
v 0.2 0.9 0
v 0.4 0.9 0
v 0.5 0.9 0
v 0.2 0.9 -0.1
v 0.4 0.9 -0.1
v 0.5 0.9 -0.1
v 0.2 1 0.2
v 0.3 1 0.2
v 0.2 1 0.1
v 0.3 1 0.1
v 0.2 1 0
v 0.3 1 0
v -0.4 1 -0.1
v -0.2 1 -0.1
v -0.1 1 -0.1
v -0.4 1 -0.2
v -0.2 1 -0.2
v -0.1 1 -0.2
v -0.4 1.1 0.1
v -0.3 1.1 0.1
v -0.4 1.1 0
v -0.3 1.1 0
v -0.4 1.1 -0.1
v -0.3 1.1 -0.1
v -0.3 1.2 0.2
v -0.2 1.2 0.2
v -0.1 1.2 0.2
v -0.3 1.2 0.1
v -0.2 1.2 0.1
v -0.1 1.2 0.1
v 0.3 1.3 0.2
v 0.4 1.3 0.2
v 0.5 1.3 0.2
v 0.3 1.3 0
v 0.4 1.3 0
v 0.5 1.3 0
v -0.3 1.5 0.1
v -0.1 1.5 0.1
v -0.3 1.5 0
v -0.1 1.5 0
v -0.3 1.5 -0.1
v -0.1 1.5 -0.1

# faces
f 4/1/1 2/1/1 1/1/1
f 5/1/1 2/1/1 4/1/1
f 6/2/1 3/2/1 2/2/1
f 7/2/1 3/2/1 6/2/1
f 8/1/1 2/1/1 5/1/1
f 9/2/1 6/2/1 2/2/1
f 9/1/1 2/1/1 8/1/1
f 10/2/1 9/2/1 8/2/1
f 11/2/1 6/2/1 9/2/1
f 11/2/1 9/2/1 10/2/1
f 12/2/1 6/2/1 11/2/1
f 13/2/1 6/2/1 12/2/1
f 18/1/1 15/1/1 14/1/1
f 19/1/1 15/1/1 18/1/1
f 20/2/1 17/2/1 16/2/1
f 21/2/1 17/2/1 20/2/1
f 22/2/1 19/2/1 18/2/1
f 23/2/1 19/2/1 22/2/1
f 26/2/1 25/2/1 24/2/1
f 28/2/1 26/2/1 24/2/1
f 29/2/1 26/2/1 28/2/1
f 30/1/1 27/1/1 26/1/1
f 31/1/1 27/1/1 30/1/1
f 32/2/1 26/2/1 29/2/1
f 33/1/1 30/1/1 26/1/1
f 33/2/1 26/2/1 32/2/1
f 34/1/1 30/1/1 33/1/1
f 37/2/1 36/2/1 35/2/1
f 40/2/1 37/2/1 35/2/1
f 40/2/1 38/2/1 37/2/1
f 41/2/1 38/2/1 40/2/1
f 42/2/1 38/2/1 41/2/1
f 43/1/1 39/1/1 38/1/1
f 43/2/1 38/2/1 42/2/1
f 44/1/1 39/1/1 43/1/1
f 47/1/1 46/1/1 45/1/1
f 48/1/1 46/1/1 47/1/1
f 51/2/1 50/2/1 49/2/1
f 52/2/1 50/2/1 51/2/1
f 53/2/1 50/2/1 52/2/1
f 54/2/1 50/2/1 53/2/1
f 57/1/1 56/1/1 55/1/1
f 58/1/1 56/1/1 57/1/1
f 61/2/1 60/2/1 59/2/1
f 62/2/1 60/2/1 61/2/1
f 65/2/1 64/2/1 63/2/1
f 66/2/1 64/2/1 65/2/1
f 69/2/1 68/2/1 67/2/1
f 70/2/1 68/2/1 69/2/1
f 71/2/1 68/2/1 70/2/1
f 72/1/1 70/1/1 69/1/1
f 73/1/1 70/1/1 72/1/1
f 76/1/1 75/1/1 74/1/1
f 77/1/1 75/1/1 76/1/1
f 81/1/1 79/1/1 78/1/1
f 82/1/1 81/1/1 80/1/1
f 83/1/1 81/1/1 82/1/1
f 84/1/1 79/1/1 81/1/1
f 84/1/1 81/1/1 83/1/1
f 85/1/1 79/1/1 84/1/1
f 86/2/1 83/2/1 82/2/1
f 87/1/1 84/1/1 83/1/1
f 87/2/1 83/2/1 86/2/1
f 88/1/1 84/1/1 87/1/1
f 92/1/1 90/1/1 89/1/1
f 92/1/1 91/1/1 90/1/1
f 93/1/1 91/1/1 92/1/1
f 94/2/2 95/2/2 96/2/2
f 96/2/2 95/2/2 97/2/2
f 97/2/2 95/2/2 98/2/2
f 98/2/2 95/2/2 99/2/2
f 100/1/2 101/1/2 102/1/2
f 102/1/2 101/1/2 103/1/2
f 104/2/2 105/2/2 107/2/2
f 105/1/2 106/1/2 108/1/2
f 107/2/2 105/2/2 108/2/2
f 108/1/2 106/1/2 109/1/2
f 109/1/2 106/1/2 110/1/2
f 111/1/2 112/1/2 113/1/2
f 113/1/2 112/1/2 114/1/2
f 115/1/2 116/1/2 117/1/2
f 117/1/2 116/1/2 118/1/2
f 120/2/2 121/2/2 123/2/2
f 121/2/2 122/2/2 123/2/2
f 123/2/2 122/2/2 124/2/2
f 120/2/2 123/2/2 125/2/2
f 125/2/2 123/2/2 126/2/2
f 119/1/2 120/1/2 127/1/2
f 120/2/2 125/2/2 128/2/2
f 127/1/2 120/1/2 128/1/2
f 128/2/2 125/2/2 129/2/2
f 125/1/2 126/1/2 130/1/2
f 129/2/2 125/2/2 130/2/2
f 130/1/2 126/1/2 131/1/2
f 132/1/2 133/1/2 134/1/2
f 134/1/2 133/1/2 135/1/2
f 136/1/2 137/1/2 138/1/2
f 138/1/2 137/1/2 139/1/2
f 139/1/2 137/1/2 140/1/2
f 136/1/2 138/1/2 141/1/2
f 141/1/2 138/1/2 142/1/2
f 139/2/2 140/2/2 143/2/2
f 143/2/2 140/2/2 144/2/2
f 145/2/2 146/2/2 147/2/2
f 147/2/2 146/2/2 148/2/2
f 149/2/2 150/2/2 151/2/2
f 151/2/2 150/2/2 152/2/2
f 151/1/2 152/1/2 153/1/2
f 152/2/2 150/2/2 153/2/2
f 153/2/2 150/2/2 154/2/2
f 151/1/2 153/1/2 155/1/2
f 155/1/2 153/1/2 156/1/2
f 154/2/2 150/2/2 157/2/2
f 157/2/2 150/2/2 158/2/2
f 157/1/2 158/1/2 159/1/2
f 159/1/2 158/1/2 160/1/2
f 161/2/2 162/2/2 163/2/2
f 163/2/2 162/2/2 164/2/2
f 165/2/2 166/2/2 168/2/2
f 166/1/2 167/1/2 168/1/2
f 168/1/2 167/1/2 169/1/2
f 165/2/2 168/2/2 170/2/2
f 170/2/2 168/2/2 171/2/2
f 172/2/2 173/2/2 175/2/2
f 175/2/2 173/2/2 176/2/2
f 176/2/2 173/2/2 177/2/2
f 174/1/2 175/1/2 178/1/2
f 175/2/2 176/2/2 179/2/2
f 178/1/2 175/1/2 179/1/2
f 178/2/2 179/2/2 180/2/2
f 179/2/2 176/2/2 181/2/2
f 180/2/2 179/2/2 181/2/2
f 184/1/3 183/1/3 182/1/3
f 187/1/3 185/1/3 184/1/3
f 187/2/3 186/2/3 185/2/3
f 188/2/3 186/2/3 187/2/3
f 189/1/3 187/1/3 184/1/3
f 189/1/3 188/1/3 187/1/3
f 190/1/3 188/1/3 189/1/3
f 191/1/3 189/1/3 184/1/3
f 192/1/3 189/1/3 191/1/3
f 193/1/3 184/1/3 182/1/3
f 193/1/3 191/1/3 184/1/3
f 194/1/3 191/1/3 193/1/3
f 198/1/3 196/1/3 195/1/3
f 199/2/3 197/2/3 196/2/3
f 199/1/3 196/1/3 198/1/3
f 200/2/3 197/2/3 199/2/3
f 201/2/3 197/2/3 200/2/3
f 203/2/3 202/2/3 201/2/3
f 203/2/3 201/2/3 200/2/3
f 205/2/3 203/2/3 200/2/3
f 205/2/3 204/2/3 203/2/3
f 206/2/3 204/2/3 205/2/3
f 208/1/3 206/1/3 205/1/3
f 209/1/3 206/1/3 208/1/3
f 210/1/3 206/1/3 209/1/3
f 211/1/3 206/1/3 210/1/3
f 213/1/3 208/1/3 207/1/3
f 213/1/3 209/1/3 208/1/3
f 215/1/3 213/1/3 212/1/3
f 216/2/3 210/2/3 209/2/3
f 216/1/3 209/1/3 213/1/3
f 216/1/3 213/1/3 215/1/3
f 217/2/3 210/2/3 216/2/3
f 219/2/3 215/2/3 214/2/3
f 220/1/3 218/1/3 217/1/3
f 220/2/3 215/2/3 219/2/3
f 220/1/3 216/1/3 215/1/3
f 220/1/3 217/1/3 216/1/3
f 221/1/3 218/1/3 220/1/3
f 222/1/3 218/1/3 221/1/3
f 225/1/3 223/1/3 222/1/3
f 225/1/3 222/1/3 221/1/3
f 226/1/3 223/1/3 225/1/3
f 227/2/3 224/2/3 223/2/3
f 227/1/3 223/1/3 226/1/3
f 228/2/3 224/2/3 227/2/3
f 230/2/3 226/2/3 225/2/3
f 231/1/3 228/1/3 227/1/3
f 231/2/3 226/2/3 230/2/3
f 231/1/3 227/1/3 226/1/3
f 231/1/3 229/1/3 228/1/3
f 232/1/3 229/1/3 231/1/3
f 233/1/3 229/1/3 232/1/3
f 234/1/3 232/1/3 231/1/3
f 235/2/3 233/2/3 232/2/3
f 235/1/3 232/1/3 234/1/3
f 236/2/3 233/2/3 235/2/3
f 239/2/3 238/2/3 237/2/3
f 240/2/3 238/2/3 239/2/3
f 243/2/3 242/2/3 241/2/3
f 244/2/3 242/2/3 243/2/3
f 245/2/3 242/2/3 244/2/3
f 248/2/3 247/2/3 246/2/3
f 249/2/3 247/2/3 248/2/3
f 252/2/3 251/2/3 250/2/3
f 253/2/3 251/2/3 252/2/3
f 256/2/3 255/2/3 254/2/3
f 257/2/3 255/2/3 256/2/3
f 260/2/3 259/2/3 258/2/3
f 261/2/3 259/2/3 260/2/3
f 264/2/3 263/2/3 262/2/3
f 265/2/3 263/2/3 264/2/3
f 267/1/3 265/1/3 264/1/3
f 267/1/3 266/1/3 265/1/3
f 268/1/3 266/1/3 267/1/3
f 269/1/3 267/1/3 264/1/3
f 270/1/3 267/1/3 269/1/3
f 271/1/3 267/1/3 270/1/3
f 272/1/3 267/1/3 271/1/3
f 273/1/3 267/1/3 272/1/3
f 274/2/3 272/2/3 271/2/3
f 275/2/3 272/2/3 274/2/3
f 276/1/4 277/1/4 278/1/4
f 278/1/4 277/1/4 279/1/4
f 276/1/4 278/1/4 280/1/4
f 280/1/4 278/1/4 281/1/4
f 282/1/4 283/1/4 285/1/4
f 283/2/4 284/2/4 286/2/4
f 285/1/4 283/1/4 286/1/4
f 286/2/4 284/2/4 287/2/4
f 287/2/4 288/2/4 290/2/4
f 286/2/4 287/2/4 290/2/4
f 290/2/4 288/2/4 291/2/4
f 291/2/4 288/2/4 292/2/4
f 289/1/4 290/1/4 294/1/4
f 290/1/4 291/1/4 294/1/4
f 293/1/4 294/1/4 295/1/4
f 294/1/4 291/1/4 296/1/4
f 295/1/4 294/1/4 296/1/4
f 296/1/4 291/1/4 297/1/4
f 297/1/4 291/1/4 298/1/4
f 298/1/4 291/1/4 299/1/4
f 300/2/4 301/2/4 302/2/4
f 302/2/4 301/2/4 303/2/4
f 304/1/4 305/1/4 306/1/4
f 306/1/4 305/1/4 307/1/4
f 308/1/4 309/1/4 310/1/4
f 308/1/4 310/1/4 312/1/4
f 310/1/4 311/1/4 312/1/4
f 312/1/4 311/1/4 313/1/4
f 312/2/4 313/2/4 314/2/4
f 314/2/4 313/2/4 315/2/4
f 316/1/4 317/1/4 318/1/4
f 316/1/4 318/1/4 320/1/4
f 318/1/4 319/1/4 320/1/4
f 320/1/4 319/1/4 321/1/4
f 320/2/4 321/2/4 322/2/4
f 321/1/4 319/1/4 323/1/4
f 322/2/4 321/2/4 323/2/4
f 323/1/4 319/1/4 324/1/4
f 325/1/4 326/1/4 329/1/4
f 329/1/4 326/1/4 330/1/4
f 327/2/4 328/2/4 332/2/4
f 330/1/4 331/1/4 333/1/4
f 332/2/4 328/2/4 333/2/4
f 328/1/4 329/1/4 333/1/4
f 329/1/4 330/1/4 333/1/4
f 333/1/4 331/1/4 334/1/4
f 334/1/4 331/1/4 335/1/4
f 335/1/4 331/1/4 336/1/4
f 335/2/4 336/2/4 337/2/4
f 337/2/4 336/2/4 338/2/4
f 339/2/4 340/2/4 341/2/4
f 341/2/4 340/2/4 342/2/4
f 342/2/4 340/2/4 343/2/4
f 343/2/4 340/2/4 344/2/4
f 342/2/4 343/2/4 346/2/4
f 344/1/4 345/1/4 347/1/4
f 346/2/4 343/2/4 347/2/4
f 343/1/4 344/1/4 347/1/4
f 346/1/4 347/1/4 349/1/4
f 347/1/4 345/1/4 350/1/4
f 349/1/4 347/1/4 350/1/4
f 350/1/4 345/1/4 351/1/4
f 348/1/4 349/1/4 352/1/4
f 349/1/4 350/1/4 352/1/4
f 350/2/4 351/2/4 352/2/4
f 352/2/4 351/2/4 353/2/4
f 348/1/4 352/1/4 354/1/4
f 354/1/4 352/1/4 355/1/4
f 354/2/4 355/2/4 357/2/4
f 357/2/4 355/2/4 358/2/4
f 358/2/4 355/2/4 359/2/4
f 359/2/4 355/2/4 360/2/4
f 356/2/4 357/2/4 361/2/4
f 357/2/4 358/2/4 361/2/4
f 358/1/4 359/1/4 362/1/4
f 361/2/4 358/2/4 362/2/4
f 362/1/4 359/1/4 363/1/4
f 364/2/4 365/2/4 366/2/4
f 364/2/4 366/2/4 368/2/4
f 366/2/4 367/2/4 368/2/4
f 368/2/4 367/2/4 369/2/4
f 368/1/4 369/1/4 370/1/4
f 370/1/4 369/1/4 371/1/4
f 368/1/4 370/1/4 372/1/4
f 372/1/4 370/1/4 373/1/4
f 368/1/4 372/1/4 374/1/4
f 372/2/4 373/2/4 375/2/4
f 374/1/4 372/1/4 375/1/4
f 375/2/4 373/2/4 376/2/4
f 379/1/5 378/1/5 377/1/5
f 380/1/5 378/1/5 379/1/5
f 381/2/5 380/2/5 379/2/5
f 382/1/5 378/1/5 380/1/5
f 382/2/5 380/2/5 381/2/5
f 383/2/5 381/2/5 379/2/5
f 384/1/5 382/1/5 381/1/5
f 384/2/5 381/2/5 383/2/5
f 385/1/5 378/1/5 382/1/5
f 385/1/5 382/1/5 384/1/5
f 388/2/5 387/2/5 386/2/5
f 389/2/5 387/2/5 388/2/5
f 392/1/5 391/1/5 390/1/5
f 393/1/5 391/1/5 392/1/5
f 396/2/5 395/2/5 394/2/5
f 397/2/5 395/2/5 396/2/5
f 400/2/5 399/2/5 398/2/5
f 401/2/5 399/2/5 400/2/5
f 405/1/5 403/1/5 402/1/5
f 406/2/5 404/2/5 403/2/5
f 406/1/5 403/1/5 405/1/5
f 407/2/5 404/2/5 406/2/5
f 410/2/5 409/2/5 408/2/5
f 411/2/5 409/2/5 410/2/5
f 412/1/5 407/1/5 406/1/5
f 413/1/5 407/1/5 412/1/5
f 420/2/5 415/2/5 414/2/5
f 421/2/5 415/2/5 420/2/5
f 422/2/5 417/2/5 416/2/5
f 423/2/5 417/2/5 422/2/5
f 424/1/5 421/1/5 420/1/5
f 425/1/5 421/1/5 424/1/5
f 426/2/5 422/2/5 416/2/5
f 427/2/5 422/2/5 426/2/5
f 428/2/5 419/2/5 418/2/5
f 429/2/5 419/2/5 428/2/5
f 434/1/5 431/1/5 430/1/5
f 435/1/5 431/1/5 434/1/5
f 436/2/5 433/2/5 432/2/5
f 437/2/5 433/2/5 436/2/5
f 440/1/5 439/1/5 438/1/5
f 441/1/5 439/1/5 440/1/5
f 442/1/6 443/1/6 444/1/6
f 444/1/6 443/1/6 445/1/6
f 446/1/6 447/1/6 449/1/6
f 449/1/6 447/1/6 450/1/6
f 448/2/6 449/2/6 452/2/6
f 449/2/6 450/2/6 452/2/6
f 452/2/6 450/2/6 453/2/6
f 450/1/6 451/1/6 454/1/6
f 453/2/6 450/2/6 454/2/6
f 454/1/6 451/1/6 455/1/6
f 456/1/6 457/1/6 458/1/6
f 458/1/6 457/1/6 459/1/6
f 460/2/6 461/2/6 462/2/6
f 462/2/6 461/2/6 463/2/6
f 464/2/6 465/2/6 469/2/6
f 469/2/6 465/2/6 470/2/6
f 466/1/6 467/1/6 471/1/6
f 467/2/6 468/2/6 472/2/6
f 471/1/6 467/1/6 472/1/6
f 472/2/6 468/2/6 473/2/6
f 474/1/6 475/1/6 476/1/6
f 476/1/6 475/1/6 477/1/6
f 478/2/6 479/2/6 481/2/6
f 479/1/6 480/1/6 482/1/6
f 481/2/6 479/2/6 482/2/6
f 482/1/6 480/1/6 483/1/6
f 484/2/6 485/2/6 487/2/6
f 485/1/6 486/1/6 488/1/6
f 487/2/6 485/2/6 488/2/6
f 488/1/6 486/1/6 489/1/6
f 490/1/6 491/1/6 492/1/6
f 492/1/6 491/1/6 493/1/6
f 496/2/6 497/2/6 498/2/6
f 494/2/6 495/2/6 499/2/6
f 499/2/6 495/2/6 500/2/6
f 498/2/6 497/2/6 501/2/6
f 498/2/6 501/2/6 503/2/6
f 503/2/6 501/2/6 504/2/6
f 501/1/6 502/1/6 505/1/6
f 504/2/6 501/2/6 505/2/6
f 505/1/6 502/1/6 506/1/6
f 503/1/6 504/1/6 507/1/6
f 504/2/6 505/2/6 508/2/6
f 507/1/6 504/1/6 508/1/6
f 508/2/6 505/2/6 509/2/6
f 510/1/6 511/1/6 514/1/6
f 514/1/6 511/1/6 515/1/6
f 512/2/6 513/2/6 516/2/6
f 516/2/6 513/2/6 517/2/6
f 518/2/6 519/2/6 520/2/6
f 520/2/6 519/2/6 521/2/6
f 522/1/6 523/1/6 525/1/6
f 523/2/6 524/2/6 526/2/6
f 525/1/6 523/1/6 526/1/6
f 526/2/6 524/2/6 527/2/6
f 528/2/6 529/2/6 530/2/6
f 530/2/6 529/2/6 531/2/6
f 530/1/6 531/1/6 532/1/6
f 532/1/6 531/1/6 533/1/6
f 534/1/6 535/1/6 537/1/6
f 535/2/6 536/2/6 538/2/6
f 537/1/6 535/1/6 538/1/6
f 538/2/6 536/2/6 539/2/6
f 540/2/6 541/2/6 542/2/6
f 542/2/6 541/2/6 543/2/6
f 542/1/6 543/1/6 544/1/6
f 544/1/6 543/1/6 545/1/6
f 546/2/6 547/2/6 549/2/6
f 547/1/6 548/1/6 550/1/6
f 549/2/6 547/2/6 550/2/6
f 550/1/6 548/1/6 551/1/6
f 552/1/6 553/1/6 555/1/6
f 553/2/6 554/2/6 556/2/6
f 555/1/6 553/1/6 556/1/6
f 556/2/6 554/2/6 557/2/6
f 558/2/6 559/2/6 560/2/6
f 560/2/6 559/2/6 561/2/6
f 560/1/6 561/1/6 562/1/6
f 562/1/6 561/1/6 563/1/6
