# MagicaVoxel @ Ephtracy

# group
o fakkel

# material
mtllib fakkel.mtl
usemtl palette

# normals
vn -1 0 0
vn 1 0 0
vn 0 0 1
vn 0 0 -1
vn 0 -1 0
vn 0 1 0

# texcoords
vt 0.166016 0.5
vt 0.173828 0.5
vt 0.208984 0.5
vt 0.291016 0.5
vt 0.302734 0.5
vt 0.310547 0.5
vt 0.990234 0.5

# verts
v -0.3 0.3 0.3
v -0.3 0.3 0.1
v -0.3 0.5 0.3
v -0.3 0.5 0.1
v -0.3 0.8 0.3
v -0.3 0.8 0.1
v -0.3 0.9 0.3
v -0.3 0.9 0.1
v -0.2 0.3 0.1
v -0.2 0.3 -2.98023e-08
v -0.2 0.5 0.1
v -0.2 0.5 -2.98023e-08
v -0.2 0.8 0.1
v -0.2 0.8 -2.98023e-08
v -0.2 0.9 0.1
v -0.2 0.9 -2.98023e-08
v -0.1 0.8 -2.98023e-08
v -0.1 0.8 -0.1
v -0.1 0.9 -2.98023e-08
v -0.1 0.9 -0.1
v -0.1 1.1 0.1
v -0.1 1.1 -2.98023e-08
v -0.1 1.3 -2.98023e-08
v -0.1 1.3 -0.1
v -0.1 1.4 0.2
v -0.1 1.4 0.1
v -0.1 1.4 -0.1
v -0.1 1.5 -2.98023e-08
v -0.1 1.5 -0.1
v -0.1 1.6 0.2
v -0.1 1.6 0.1
v -0.1 1.6 -2.98023e-08
v -0.1 1.6 -0.1
v -0.1 1.7 0.1
v -0.1 1.7 -2.98023e-08
v -0.1 1.7 -0.1
v -0.1 1.8 0.1
v -0.1 1.8 -2.98023e-08
v -0.1 1.8 -0.1
v 2.98023e-08 0 0.1
v 2.98023e-08 0 -2.98023e-08
v 2.98023e-08 0.2 -2.98023e-08
v 2.98023e-08 0.2 -0.1
v 2.98023e-08 0.3 0.1
v 2.98023e-08 0.3 -2.98023e-08
v 2.98023e-08 0.3 -0.1
v 2.98023e-08 0.5 0.1
v 2.98023e-08 0.5 -2.98023e-08
v 2.98023e-08 0.5 -0.1
v 2.98023e-08 0.8 0.1
v 2.98023e-08 0.8 -0.1
v 2.98023e-08 0.9 0.1
v 2.98023e-08 0.9 -0.1
v 2.98023e-08 1.1 0.1
v 2.98023e-08 1.1 -2.98023e-08
v 2.98023e-08 1.3 0.2
v 2.98023e-08 1.3 0.1
v 2.98023e-08 1.3 -2.98023e-08
v 2.98023e-08 1.3 -0.1
v 2.98023e-08 1.4 0.2
v 2.98023e-08 1.4 0.1
v 2.98023e-08 1.4 -0.1
v 2.98023e-08 1.4 -0.2
v 2.98023e-08 1.5 -0.1
v 2.98023e-08 1.5 -0.2
v 2.98023e-08 1.6 0.2
v 2.98023e-08 1.6 0.1
v 2.98023e-08 1.7 0.2
v 2.98023e-08 1.7 0.1
v 2.98023e-08 1.8 0.1
v 2.98023e-08 1.8 -2.98023e-08
v 2.98023e-08 1.8 -0.1
v 2.98023e-08 1.9 -2.98023e-08
v 2.98023e-08 1.9 -0.1
v 2.98023e-08 2 0.1
v 2.98023e-08 2 -2.98023e-08
v -0.1 0.3 0.3
v -0.1 0.3 0.2
v -0.1 0.5 0.3
v -0.1 0.5 0.2
v -0.1 0.8 0.3
v -0.1 0.8 0.2
v -0.1 0.9 0.3
v -0.1 0.9 0.2
v 0.1 0.3 0.2
v 0.1 0.3 0.1
v 0.1 0.5 0.2
v 0.1 0.5 0.1
v 0.1 1.9 0.1
v 0.1 1.9 -2.98023e-08
v 0.1 2 0.1
v 0.1 2 -2.98023e-08
v 0.2 0 0.1
v 0.2 0 -2.98023e-08
v 0.2 0.2 -2.98023e-08
v 0.2 0.2 -0.1
v 0.2 0.3 0.1
v 0.2 0.3 -0.1
v 0.2 0.5 0.1
v 0.2 0.5 -0.1
v 0.2 0.8 0.2
v 0.2 0.8 0.1
v 0.2 0.8 -2.98023e-08
v 0.2 0.8 -0.1
v 0.2 0.9 0.2
v 0.2 0.9 0.1
v 0.2 0.9 -2.98023e-08
v 0.2 0.9 -0.1
v 0.2 1.3 0.2
v 0.2 1.3 0.1
v 0.2 1.3 -0.1
v 0.2 1.4 -0.1
v 0.2 1.4 -0.2
v 0.2 1.5 0.1
v 0.2 1.5 -0.1
v 0.2 1.5 -0.2
v 0.2 1.6 0.2
v 0.2 1.6 0.1
v 0.2 1.7 0.2
v 0.2 1.7 0.1
v 0.2 1.7 -2.98023e-08
v 0.2 1.7 -0.1
v 0.2 1.8 0.1
v 0.2 1.8 -2.98023e-08
v 0.2 1.8 -0.1
v 0.2 1.9 0.1
v 0.2 1.9 -2.98023e-08
v 0.2 1.9 -0.1
v 0.3 0.8 0.1
v 0.3 0.8 -2.98023e-08
v 0.3 0.9 0.1
v 0.3 0.9 -2.98023e-08
v 0.3 1.3 0.1
v 0.3 1.3 -0.1
v 0.3 1.5 0.1
v 0.3 1.5 -2.98023e-08
v 0.3 1.6 0.1
v 0.3 1.6 -2.98023e-08
v 0.3 1.6 -0.1
v 0.3 1.7 0.1
v 0.3 1.7 -2.98023e-08
v 0.3 1.7 -0.1
v -0.3 0.3 0.3
v -0.3 0.5 0.3
v -0.3 0.8 0.3
v -0.3 0.9 0.3
v -0.1 0.3 0.3
v -0.1 0.5 0.3
v -0.1 0.8 0.3
v -0.1 0.9 0.3
v -0.1 0.3 0.2
v -0.1 0.5 0.2
v -0.1 0.8 0.2
v -0.1 0.9 0.2
v -0.1 1.4 0.2
v -0.1 1.6 0.2
v 2.98023e-08 1.3 0.2
v 2.98023e-08 1.4 0.2
v 2.98023e-08 1.5 0.2
v 2.98023e-08 1.6 0.2
v 2.98023e-08 1.7 0.2
v 0.1 0.3 0.2
v 0.1 0.5 0.2
v 0.1 1.5 0.2
v 0.1 1.6 0.2
v 0.2 0.8 0.2
v 0.2 0.9 0.2
v 0.2 1.3 0.2
v 0.2 1.6 0.2
v 0.2 1.7 0.2
v -0.1 1.1 0.1
v -0.1 1.4 0.1
v -0.1 1.6 0.1
v -0.1 1.7 0.1
v -0.1 1.8 0.1
v 2.98023e-08 0 0.1
v 2.98023e-08 0.3 0.1
v 2.98023e-08 0.5 0.1
v 2.98023e-08 0.8 0.1
v 2.98023e-08 0.9 0.1
v 2.98023e-08 1.1 0.1
v 2.98023e-08 1.3 0.1
v 2.98023e-08 1.4 0.1
v 2.98023e-08 1.6 0.1
v 2.98023e-08 1.7 0.1
v 2.98023e-08 1.8 0.1
v 2.98023e-08 2 0.1
v 0.1 0.3 0.1
v 0.1 0.5 0.1
v 0.1 1.7 0.1
v 0.1 1.8 0.1
v 0.1 1.9 0.1
v 0.1 2 0.1
v 0.2 0 0.1
v 0.2 0.3 0.1
v 0.2 0.5 0.1
v 0.2 0.8 0.1
v 0.2 0.9 0.1
v 0.2 1.3 0.1
v 0.2 1.5 0.1
v 0.2 1.6 0.1
v 0.2 1.7 0.1
v 0.2 1.8 0.1
v 0.2 1.9 0.1
v 0.3 0.8 0.1
v 0.3 0.9 0.1
v 0.3 1.3 0.1
v 0.3 1.5 0.1
v 0.3 1.6 0.1
v 0.3 1.7 0.1
v -0.3 0.3 0.1
v -0.3 0.5 0.1
v -0.3 0.8 0.1
v -0.3 0.9 0.1
v -0.2 0.3 0.1
v -0.2 0.5 0.1
v -0.2 0.8 0.1
v -0.2 0.9 0.1
v -0.2 0.3 -2.98023e-08
v -0.2 0.5 -2.98023e-08
v -0.2 0.8 -2.98023e-08
v -0.2 0.9 -2.98023e-08
v -0.1 0.8 -2.98023e-08
v -0.1 0.9 -2.98023e-08
v -0.1 1.1 -2.98023e-08
v -0.1 1.3 -2.98023e-08
v 2.98023e-08 0 -2.98023e-08
v 2.98023e-08 0.2 -2.98023e-08
v 2.98023e-08 0.3 -2.98023e-08
v 2.98023e-08 0.5 -2.98023e-08
v 2.98023e-08 1.1 -2.98023e-08
v 2.98023e-08 1.3 -2.98023e-08
v 2.98023e-08 1.9 -2.98023e-08
v 2.98023e-08 2 -2.98023e-08
v 0.1 1.9 -2.98023e-08
v 0.1 2 -2.98023e-08
v 0.2 0 -2.98023e-08
v 0.2 0.2 -2.98023e-08
v 0.2 0.8 -2.98023e-08
v 0.2 0.9 -2.98023e-08
v 0.3 0.8 -2.98023e-08
v 0.3 0.9 -2.98023e-08
v -0.1 0.8 -0.1
v -0.1 0.9 -0.1
v -0.1 1.3 -0.1
v -0.1 1.4 -0.1
v -0.1 1.5 -0.1
v -0.1 1.6 -0.1
v -0.1 1.7 -0.1
v -0.1 1.8 -0.1
v 2.98023e-08 0.2 -0.1
v 2.98023e-08 0.3 -0.1
v 2.98023e-08 0.5 -0.1
v 2.98023e-08 0.8 -0.1
v 2.98023e-08 0.9 -0.1
v 2.98023e-08 1.3 -0.1
v 2.98023e-08 1.4 -0.1
v 2.98023e-08 1.5 -0.1
v 2.98023e-08 1.6 -0.1
v 2.98023e-08 1.7 -0.1
v 2.98023e-08 1.8 -0.1
v 2.98023e-08 1.9 -0.1
v 0.1 1.3 -0.1
v 0.1 1.4 -0.1
v 0.1 1.5 -0.1
v 0.1 1.6 -0.1
v 0.1 1.8 -0.1
v 0.1 1.9 -0.1
v 0.2 0.2 -0.1
v 0.2 0.3 -0.1
v 0.2 0.5 -0.1
v 0.2 0.8 -0.1
v 0.2 0.9 -0.1
v 0.2 1.3 -0.1
v 0.2 1.4 -0.1
v 0.2 1.5 -0.1
v 0.2 1.6 -0.1
v 0.2 1.7 -0.1
v 0.2 1.8 -0.1
v 0.2 1.9 -0.1
v 0.3 1.3 -0.1
v 0.3 1.6 -0.1
v 0.3 1.7 -0.1
v 2.98023e-08 1.4 -0.2
v 2.98023e-08 1.5 -0.2
v 0.2 1.4 -0.2
v 0.2 1.5 -0.2
v 2.98023e-08 0 0.1
v 0.2 0 0.1
v 2.98023e-08 0 -2.98023e-08
v 0.2 0 -2.98023e-08
v 2.98023e-08 0.2 -2.98023e-08
v 0.2 0.2 -2.98023e-08
v 2.98023e-08 0.2 -0.1
v 0.2 0.2 -0.1
v -0.3 0.3 0.3
v -0.1 0.3 0.3
v -0.2 0.3 0.2
v -0.1 0.3 0.2
v 0.1 0.3 0.2
v -0.3 0.3 0.1
v -0.2 0.3 0.1
v -0.1 0.3 0.1
v 2.98023e-08 0.3 0.1
v 0.1 0.3 0.1
v -0.2 0.3 -2.98023e-08
v 2.98023e-08 0.3 -2.98023e-08
v -0.3 0.8 0.3
v -0.1 0.8 0.3
v -0.1 0.8 0.2
v 0.2 0.8 0.2
v -0.3 0.8 0.1
v -0.2 0.8 0.1
v 2.98023e-08 0.8 0.1
v 0.2 0.8 0.1
v 0.3 0.8 0.1
v -0.2 0.8 -2.98023e-08
v -0.1 0.8 -2.98023e-08
v 0.2 0.8 -2.98023e-08
v 0.3 0.8 -2.98023e-08
v -0.1 0.8 -0.1
v 2.98023e-08 0.8 -0.1
v -0.1 1.1 0.1
v 2.98023e-08 1.1 0.1
v -0.1 1.1 -2.98023e-08
v 2.98023e-08 1.1 -2.98023e-08
v 2.98023e-08 1.3 0.2
v 0.2 1.3 0.2
v 2.98023e-08 1.3 0.1
v 0.2 1.3 0.1
v 0.3 1.3 0.1
v -0.1 1.3 -2.98023e-08
v 2.98023e-08 1.3 -2.98023e-08
v -0.1 1.3 -0.1
v 2.98023e-08 1.3 -0.1
v 0.2 1.3 -0.1
v 0.3 1.3 -0.1
v -0.1 1.4 0.2
v 2.98023e-08 1.4 0.2
v -0.1 1.4 0.1
v 2.98023e-08 1.4 0.1
v 2.98023e-08 1.4 -0.1
v 0.1 1.4 -0.1
v 0.2 1.4 -0.1
v 2.98023e-08 1.4 -0.2
v 0.2 1.4 -0.2
v -0.3 0.5 0.3
v -0.1 0.5 0.3
v -0.1 0.5 0.2
v 0.1 0.5 0.2
v -0.3 0.5 0.1
v -0.2 0.5 0.1
v 2.98023e-08 0.5 0.1
v 0.1 0.5 0.1
v -0.2 0.5 -2.98023e-08
v 2.98023e-08 0.5 -2.98023e-08
v -0.3 0.9 0.3
v -0.1 0.9 0.3
v -0.1 0.9 0.2
v 0.2 0.9 0.2
v -0.3 0.9 0.1
v -0.2 0.9 0.1
v 2.98023e-08 0.9 0.1
v 0.2 0.9 0.1
v 0.3 0.9 0.1
v -0.2 0.9 -2.98023e-08
v -0.1 0.9 -2.98023e-08
v 0.2 0.9 -2.98023e-08
v 0.3 0.9 -2.98023e-08
v -0.1 0.9 -0.1
v 2.98023e-08 0.9 -0.1
v 2.98023e-08 1.5 -0.1
v 0.1 1.5 -0.1
v 0.2 1.5 -0.1
v 2.98023e-08 1.5 -0.2
v 0.2 1.5 -0.2
v -0.1 1.6 0.2
v 2.98023e-08 1.6 0.2
v -0.1 1.6 0.1
v 2.98023e-08 1.6 0.1
v 2.98023e-08 1.7 0.2
v 0.2 1.7 0.2
v 2.98023e-08 1.7 0.1
v 0.1 1.7 0.1
v 0.2 1.7 0.1
v 0.3 1.7 0.1
v 0.2 1.7 -2.98023e-08
v 0.3 1.7 -2.98023e-08
v 0.2 1.7 -0.1
v 0.3 1.7 -0.1
v -0.1 1.8 0.1
v 2.98023e-08 1.8 0.1
v -0.1 1.8 -2.98023e-08
v 2.98023e-08 1.8 -2.98023e-08
v -0.1 1.8 -0.1
v 2.98023e-08 1.8 -0.1
v 0.1 1.9 0.1
v 0.2 1.9 0.1
v 2.98023e-08 1.9 -2.98023e-08
v 0.1 1.9 -2.98023e-08
v 0.2 1.9 -2.98023e-08
v 2.98023e-08 1.9 -0.1
v 0.1 1.9 -0.1
v 0.2 1.9 -0.1
v 2.98023e-08 2 0.1
v 0.1 2 0.1
v 2.98023e-08 2 -2.98023e-08
v 0.1 2 -2.98023e-08

# faces
f 3/6/1 2/6/1 1/6/1
f 4/6/1 2/6/1 3/6/1
f 7/6/1 6/6/1 5/6/1
f 8/6/1 6/6/1 7/6/1
f 11/6/1 10/6/1 9/6/1
f 12/6/1 10/6/1 11/6/1
f 15/6/1 14/6/1 13/6/1
f 16/6/1 14/6/1 15/6/1
f 19/6/1 18/6/1 17/6/1
f 20/6/1 18/6/1 19/6/1
f 23/1/1 22/1/1 21/1/1
f 26/1/1 23/1/1 21/1/1
f 26/1/1 24/1/1 23/1/1
f 27/1/1 24/1/1 26/1/1
f 28/2/1 26/2/1 25/2/1
f 28/2/1 27/2/1 26/2/1
f 29/2/1 27/2/1 28/2/1
f 30/2/1 28/2/1 25/2/1
f 31/2/1 28/2/1 30/2/1
f 32/1/1 29/1/1 28/1/1
f 32/2/1 28/2/1 31/2/1
f 33/1/1 29/1/1 32/1/1
f 34/2/1 32/2/1 31/2/1
f 35/3/1 33/3/1 32/3/1
f 35/2/1 32/2/1 34/2/1
f 36/3/1 33/3/1 35/3/1
f 37/4/1 35/4/1 34/4/1
f 38/2/1 36/2/1 35/2/1
f 38/4/1 35/4/1 37/4/1
f 39/2/1 36/2/1 38/2/1
f 42/5/1 41/5/1 40/5/1
f 44/5/1 42/5/1 40/5/1
f 44/5/1 43/5/1 42/5/1
f 45/5/1 43/5/1 44/5/1
f 46/5/1 43/5/1 45/5/1
f 48/6/1 46/6/1 45/6/1
f 49/6/1 46/6/1 48/6/1
f 50/5/1 48/5/1 47/5/1
f 50/5/1 49/5/1 48/5/1
f 51/5/1 49/5/1 50/5/1
f 54/5/1 53/5/1 52/5/1
f 55/5/1 53/5/1 54/5/1
f 58/5/1 53/5/1 55/5/1
f 59/5/1 53/5/1 58/5/1
f 60/1/1 57/1/1 56/1/1
f 61/1/1 57/1/1 60/1/1
f 64/1/1 63/1/1 62/1/1
f 65/1/1 63/1/1 64/1/1
f 68/2/1 67/2/1 66/2/1
f 69/2/1 67/2/1 68/2/1
f 73/4/1 71/4/1 70/4/1
f 73/4/1 72/4/1 71/4/1
f 74/4/1 72/4/1 73/4/1
f 75/4/1 73/4/1 70/4/1
f 76/4/1 73/4/1 75/4/1
f 77/6/2 78/6/2 79/6/2
f 79/6/2 78/6/2 80/6/2
f 81/6/2 82/6/2 83/6/2
f 83/6/2 82/6/2 84/6/2
f 85/6/2 86/6/2 87/6/2
f 87/6/2 86/6/2 88/6/2
f 89/4/2 90/4/2 91/4/2
f 91/4/2 90/4/2 92/4/2
f 93/5/2 94/5/2 95/5/2
f 93/5/2 95/5/2 97/5/2
f 95/5/2 96/5/2 97/5/2
f 97/5/2 96/5/2 98/5/2
f 97/6/2 98/6/2 99/6/2
f 99/6/2 98/6/2 100/6/2
f 99/5/2 100/5/2 102/5/2
f 102/5/2 100/5/2 103/5/2
f 103/5/2 100/5/2 104/5/2
f 101/6/2 102/6/2 105/6/2
f 105/6/2 102/6/2 106/6/2
f 103/6/2 104/6/2 107/6/2
f 107/6/2 104/6/2 108/6/2
f 106/5/2 107/5/2 110/5/2
f 107/5/2 108/5/2 110/5/2
f 110/5/2 108/5/2 111/5/2
f 109/1/2 110/1/2 114/1/2
f 112/1/2 113/1/2 115/1/2
f 115/1/2 113/1/2 116/1/2
f 109/1/2 114/1/2 117/1/2
f 117/1/2 114/1/2 118/1/2
f 117/2/2 118/2/2 119/2/2
f 119/2/2 118/2/2 120/2/2
f 121/3/2 122/3/2 123/3/2
f 120/3/2 121/3/2 123/3/2
f 123/3/2 122/3/2 124/3/2
f 124/3/2 122/3/2 125/3/2
f 123/4/2 124/4/2 126/4/2
f 124/2/2 125/2/2 127/2/2
f 126/4/2 124/4/2 127/4/2
f 127/2/2 125/2/2 128/2/2
f 129/6/2 130/6/2 131/6/2
f 131/6/2 130/6/2 132/6/2
f 133/1/2 134/1/2 135/1/2
f 135/1/2 134/1/2 136/1/2
f 135/2/2 136/2/2 137/2/2
f 136/1/2 134/1/2 138/1/2
f 137/2/2 136/2/2 138/2/2
f 138/1/2 134/1/2 139/1/2
f 137/3/2 138/3/2 140/3/2
f 138/2/2 139/2/2 141/2/2
f 140/3/2 138/3/2 141/3/2
f 141/2/2 139/2/2 142/2/2
f 147/6/3 144/6/3 143/6/3
f 148/6/3 144/6/3 147/6/3
f 149/6/3 146/6/3 145/6/3
f 150/6/3 146/6/3 149/6/3
f 158/2/3 156/2/3 155/2/3
f 159/2/3 156/2/3 158/2/3
f 160/2/3 156/2/3 159/2/3
f 162/6/3 152/6/3 151/6/3
f 163/6/3 152/6/3 162/6/3
f 164/2/3 161/2/3 160/2/3
f 164/1/3 158/1/3 157/1/3
f 164/1/3 159/1/3 158/1/3
f 164/2/3 160/2/3 159/2/3
f 165/2/3 161/2/3 164/2/3
f 166/6/3 154/6/3 153/6/3
f 167/6/3 154/6/3 166/6/3
f 168/1/3 165/1/3 164/1/3
f 168/1/3 164/1/3 157/1/3
f 169/2/3 161/2/3 165/2/3
f 169/1/3 165/1/3 168/1/3
f 170/2/3 161/2/3 169/2/3
f 181/1/3 172/1/3 171/1/3
f 182/1/3 172/1/3 181/1/3
f 183/1/3 172/1/3 182/1/3
f 184/2/3 174/2/3 173/2/3
f 185/4/3 175/4/3 174/4/3
f 185/2/3 174/2/3 184/2/3
f 186/4/3 175/4/3 185/4/3
f 188/5/3 177/5/3 176/5/3
f 189/5/3 179/5/3 178/5/3
f 190/2/3 186/2/3 185/2/3
f 191/4/3 187/4/3 186/4/3
f 191/2/3 186/2/3 190/2/3
f 192/4/3 187/4/3 191/4/3
f 193/4/3 187/4/3 192/4/3
f 194/5/3 188/5/3 176/5/3
f 195/6/3 189/6/3 188/6/3
f 195/5/3 188/5/3 194/5/3
f 196/5/3 179/5/3 189/5/3
f 196/6/3 189/6/3 195/6/3
f 197/5/3 179/5/3 196/5/3
f 198/5/3 181/5/3 180/5/3
f 198/5/3 182/5/3 181/5/3
f 199/5/3 182/5/3 198/5/3
f 202/3/3 191/3/3 190/3/3
f 203/4/3 192/4/3 191/4/3
f 203/3/3 191/3/3 202/3/3
f 204/4/3 192/4/3 203/4/3
f 205/6/3 198/6/3 197/6/3
f 206/6/3 198/6/3 205/6/3
f 207/1/3 200/1/3 199/1/3
f 208/2/3 201/2/3 200/2/3
f 208/1/3 200/1/3 207/1/3
f 209/3/3 202/3/3 201/3/3
f 209/2/3 201/2/3 208/2/3
f 210/3/3 202/3/3 209/3/3
f 211/6/4 212/6/4 215/6/4
f 215/6/4 212/6/4 216/6/4
f 213/6/4 214/6/4 217/6/4
f 217/6/4 214/6/4 218/6/4
f 221/6/4 222/6/4 223/6/4
f 223/6/4 222/6/4 224/6/4
f 219/6/4 220/6/4 229/6/4
f 229/6/4 220/6/4 230/6/4
f 225/1/4 226/1/4 231/1/4
f 231/1/4 226/1/4 232/1/4
f 233/4/4 234/4/4 235/4/4
f 235/4/4 234/4/4 236/4/4
f 227/5/4 228/5/4 237/5/4
f 237/5/4 228/5/4 238/5/4
f 239/6/4 240/6/4 241/6/4
f 241/6/4 240/6/4 242/6/4
f 243/6/4 244/6/4 254/6/4
f 254/6/4 244/6/4 255/6/4
f 245/1/4 246/1/4 256/1/4
f 246/2/4 247/2/4 257/2/4
f 256/1/4 246/1/4 257/1/4
f 247/1/4 248/1/4 258/1/4
f 257/2/4 247/2/4 258/2/4
f 248/3/4 249/3/4 259/3/4
f 258/1/4 248/1/4 259/1/4
f 249/2/4 250/2/4 260/2/4
f 259/3/4 249/3/4 260/3/4
f 260/2/4 250/2/4 261/2/4
f 255/5/4 256/5/4 263/5/4
f 256/2/4 257/2/4 263/2/4
f 263/2/4 257/2/4 264/2/4
f 258/1/4 259/1/4 265/1/4
f 259/2/4 260/2/4 266/2/4
f 265/1/4 259/1/4 266/1/4
f 261/4/4 262/4/4 267/4/4
f 260/3/4 261/3/4 267/3/4
f 267/4/4 262/4/4 268/4/4
f 251/5/4 252/5/4 269/5/4
f 252/6/4 253/6/4 270/6/4
f 269/5/4 252/5/4 270/5/4
f 253/5/4 254/5/4 271/5/4
f 270/6/4 253/6/4 271/6/4
f 254/6/4 255/6/4 272/6/4
f 271/5/4 254/5/4 272/5/4
f 263/5/4 264/5/4 273/5/4
f 272/6/4 255/6/4 273/6/4
f 255/5/4 263/5/4 273/5/4
f 273/5/4 264/5/4 274/5/4
f 274/5/4 264/5/4 275/5/4
f 265/2/4 266/2/4 276/2/4
f 266/2/4 260/2/4 277/2/4
f 276/2/4 266/2/4 277/2/4
f 260/3/4 267/3/4 278/3/4
f 277/2/4 260/2/4 278/2/4
f 267/2/4 268/2/4 279/2/4
f 278/3/4 267/3/4 279/3/4
f 279/2/4 268/2/4 280/2/4
f 275/1/4 276/1/4 281/1/4
f 274/1/4 275/1/4 281/1/4
f 276/1/4 277/1/4 281/1/4
f 277/2/4 278/2/4 282/2/4
f 281/1/4 277/1/4 282/1/4
f 282/2/4 278/2/4 283/2/4
f 284/1/4 285/1/4 286/1/4
f 286/1/4 285/1/4 287/1/4
f 290/5/5 289/5/5 288/5/5
f 291/5/5 289/5/5 290/5/5
f 294/5/5 293/5/5 292/5/5
f 295/5/5 293/5/5 294/5/5
f 298/6/5 297/6/5 296/6/5
f 299/6/5 297/6/5 298/6/5
f 301/6/5 298/6/5 296/6/5
f 302/7/5 299/7/5 298/7/5
f 302/6/5 298/6/5 301/6/5
f 303/6/5 300/6/5 299/6/5
f 303/7/5 299/7/5 302/7/5
f 304/6/5 300/6/5 303/6/5
f 305/6/5 300/6/5 304/6/5
f 306/6/5 303/6/5 302/6/5
f 306/6/5 304/6/5 303/6/5
f 307/6/5 304/6/5 306/6/5
f 310/6/5 309/6/5 308/6/5
f 312/6/5 310/6/5 308/6/5
f 312/6/5 311/6/5 310/6/5
f 313/6/5 311/6/5 312/6/5
f 314/6/5 311/6/5 313/6/5
f 315/6/5 311/6/5 314/6/5
f 317/6/5 314/6/5 313/6/5
f 318/6/5 314/6/5 317/6/5
f 319/6/5 316/6/5 315/6/5
f 320/6/5 316/6/5 319/6/5
f 321/6/5 314/6/5 318/6/5
f 322/6/5 314/6/5 321/6/5
f 325/1/5 324/1/5 323/1/5
f 326/1/5 324/1/5 325/1/5
f 329/1/5 328/1/5 327/1/5
f 330/1/5 328/1/5 329/1/5
f 334/1/5 333/1/5 332/1/5
f 335/1/5 333/1/5 334/1/5
f 336/1/5 331/1/5 330/1/5
f 337/1/5 331/1/5 336/1/5
f 340/2/5 339/2/5 338/2/5
f 341/2/5 339/2/5 340/2/5
f 345/1/5 343/1/5 342/1/5
f 345/1/5 344/1/5 343/1/5
f 346/1/5 344/1/5 345/1/5
f 347/6/6 348/6/6 349/6/6
f 347/6/6 349/6/6 351/6/6
f 349/6/6 350/6/6 351/6/6
f 351/6/6 350/6/6 352/6/6
f 352/6/6 350/6/6 353/6/6
f 353/6/6 350/6/6 354/6/6
f 352/6/6 353/6/6 355/6/6
f 355/6/6 353/6/6 356/6/6
f 357/6/6 358/6/6 359/6/6
f 357/6/6 359/6/6 361/6/6
f 359/6/6 360/6/6 361/6/6
f 361/6/6 360/6/6 362/6/6
f 362/6/6 360/6/6 363/6/6
f 363/6/6 360/6/6 364/6/6
f 362/6/6 363/6/6 366/6/6
f 366/6/6 363/6/6 367/6/6
f 364/6/6 365/6/6 368/6/6
f 368/6/6 365/6/6 369/6/6
f 367/6/6 363/6/6 370/6/6
f 370/6/6 363/6/6 371/6/6
f 372/1/6 373/1/6 375/1/6
f 373/1/6 374/1/6 375/1/6
f 375/1/6 374/1/6 376/1/6
f 377/2/6 378/2/6 379/2/6
f 379/2/6 378/2/6 380/2/6
f 381/2/6 382/2/6 383/2/6
f 383/2/6 382/2/6 384/2/6
f 384/2/6 382/2/6 385/2/6
f 385/3/6 386/3/6 387/3/6
f 387/3/6 386/3/6 388/3/6
f 387/2/6 388/2/6 389/2/6
f 389/2/6 388/2/6 390/2/6
f 391/4/6 392/4/6 393/4/6
f 393/4/6 392/4/6 394/4/6
f 393/2/6 394/2/6 395/2/6
f 395/2/6 394/2/6 396/2/6
f 397/4/6 398/4/6 400/4/6
f 400/4/6 398/4/6 401/4/6
f 399/4/6 400/4/6 402/4/6
f 400/2/6 401/2/6 403/2/6
f 402/4/6 400/4/6 403/4/6
f 403/2/6 401/2/6 404/2/6
f 405/4/6 406/4/6 407/4/6
f 407/4/6 406/4/6 408/4/6
