# MagicaVoxel @ Ephtracy

# group
o kaars 1

# material
mtllib kaars 1.mtl
usemtl palette

# normals
vn -1 0 0
vn 1 0 0
vn 0 0 1
vn 0 0 -1
vn 0 -1 0
vn 0 1 0

# texcoords
vt 0.283203 0.5
vt 0.302734 0.5
vt 0.416016 0.5
vt 0.994141 0.5

# verts
v -0.3 0 0.2
v -0.3 0 -0.1
v -0.3 0.8 0.2
v -0.3 0.8 -0.1
v -0.3 0.9 0.2
v -0.3 0.9 -0.1
v -0.2 0 0.3
v -0.2 0 0.2
v -0.2 0 -0.1
v -0.2 0 -0.2
v -0.2 0.2 -0.1
v -0.2 0.2 -0.2
v -0.2 0.7 -0.1
v -0.2 0.7 -0.2
v -0.2 0.8 0.3
v -0.2 0.8 0.2
v -0.2 0.8 -0.1
v -0.2 0.9 0.3
v -0.2 0.9 0.2
v -0.2 0.9 0.1
v -0.2 0.9 0
v -0.2 0.9 -0.1
v -0.2 0.9 -0.2
v -0.2 1 0.1
v -0.2 1 0
v 0 0.1 0.2
v 0 0.1 0
v 0 0.2 0.2
v 0 0.2 0
v 0 0.6 0.1
v 0 0.6 0
v 0 0.7 0.2
v 0 0.7 0.1
v 0 0.7 0
v 0 0.8 0.2
v 0 0.8 0.1
v 0 0.8 0
v -0.2 0.1 0.1
v -0.2 0.1 0
v -0.2 0.2 0
v -0.2 0.7 0
v -0.2 0.8 0.1
v -0.2 0.8 0
v -0.1 0.1 0.2
v -0.1 0.1 0.1
v -0.1 0.8 0.2
v -0.1 0.8 0.1
v 0 0 -0.1
v 0 0 -0.2
v 0 0.2 -0.1
v 0 0.2 -0.2
v 0 0.7 -0.1
v 0 0.7 -0.2
v 0 0.8 -0.1
v 0 0.9 0.1
v 0 0.9 0
v 0 0.9 -0.1
v 0 0.9 -0.2
v 0 1 0.1
v 0 1 0
v 0.1 0 0.3
v 0.1 0 0.2
v 0.1 0 0
v 0.1 0 -0.1
v 0.1 0.2 0.2
v 0.1 0.2 0
v 0.1 0.6 0.1
v 0.1 0.6 -0.1
v 0.1 0.7 0.2
v 0.1 0.7 0.1
v 0.1 0.7 0
v 0.1 0.7 -0.1
v 0.1 0.8 0.3
v 0.1 0.8 0.2
v 0.1 0.8 0
v 0.1 0.8 -0.1
v 0.1 0.9 0.3
v 0.1 0.9 0.2
v 0.1 0.9 0
v 0.1 0.9 -0.1
v 0.2 0 0.2
v 0.2 0 0
v 0.2 0.2 0.2
v 0.2 0.2 0
v 0.2 0.7 0.2
v 0.2 0.7 0
v 0.2 0.9 0.2
v 0.2 0.9 0
v -0.2 0 0.3
v -0.2 0.8 0.3
v -0.2 0.9 0.3
v 0.1 0 0.3
v 0.1 0.8 0.3
v 0.1 0.9 0.3
v -0.3 0 0.2
v -0.3 0.8 0.2
v -0.3 0.9 0.2
v -0.2 0 0.2
v -0.2 0.8 0.2
v -0.2 0.9 0.2
v 0.1 0 0.2
v 0.1 0.2 0.2
v 0.1 0.7 0.2
v 0.1 0.8 0.2
v 0.1 0.9 0.2
v 0.2 0 0.2
v 0.2 0.2 0.2
v 0.2 0.7 0.2
v 0.2 0.9 0.2
v -0.2 0.9 0.1
v -0.2 1 0.1
v -0.1 0.9 0.1
v -0.1 1 0.1
v 0 0.9 0.1
v 0 1 0.1
v -0.2 0.1 0
v -0.2 0.2 0
v -0.2 0.7 0
v -0.2 0.8 0
v -0.1 0.2 0
v -0.1 0.7 0
v 0 0.1 0
v 0 0.2 0
v 0 0.6 0
v 0 0.7 0
v 0 0.8 0
v -0.1 0.1 0.2
v -0.1 0.8 0.2
v 0 0.1 0.2
v 0 0.2 0.2
v 0 0.7 0.2
v 0 0.8 0.2
v -0.2 0.1 0.1
v -0.2 0.8 0.1
v -0.1 0.1 0.1
v -0.1 0.8 0.1
v -0.2 0.9 0
v -0.2 1 0
v -0.1 0.9 0
v -0.1 1 0
v 0 0.9 0
v 0 1 0
v 0.1 0 0
v 0.1 0.2 0
v 0.1 0.7 0
v 0.1 0.8 0
v 0.1 0.9 0
v 0.2 0 0
v 0.2 0.2 0
v 0.2 0.7 0
v 0.2 0.9 0
v -0.3 0 -0.1
v -0.3 0.8 -0.1
v -0.3 0.9 -0.1
v -0.2 0 -0.1
v -0.2 0.2 -0.1
v -0.2 0.7 -0.1
v -0.2 0.8 -0.1
v -0.2 0.9 -0.1
v -0.1 0.2 -0.1
v -0.1 0.7 -0.1
v 0 0 -0.1
v 0 0.2 -0.1
v 0 0.6 -0.1
v 0 0.7 -0.1
v 0 0.8 -0.1
v 0 0.9 -0.1
v 0.1 0 -0.1
v 0.1 0.6 -0.1
v 0.1 0.7 -0.1
v 0.1 0.8 -0.1
v 0.1 0.9 -0.1
v -0.2 0 -0.2
v -0.2 0.2 -0.2
v -0.2 0.7 -0.2
v -0.2 0.9 -0.2
v 0 0 -0.2
v 0 0.2 -0.2
v 0 0.7 -0.2
v 0 0.9 -0.2
v -0.2 0 0.3
v 0.1 0 0.3
v -0.3 0 0.2
v -0.2 0 0.2
v 0.1 0 0.2
v 0.2 0 0.2
v 0 0 0
v 0.1 0 0
v 0.2 0 0
v -0.3 0 -0.1
v -0.2 0 -0.1
v 0 0 -0.1
v 0.1 0 -0.1
v -0.2 0 -0.2
v 0 0 -0.2
v 0.1 0.7 0.2
v 0.2 0.7 0.2
v 0.1 0.7 0.1
v 0.1 0.7 0
v 0.2 0.7 0
v -0.2 0.7 -0.1
v -0.1 0.7 -0.1
v 0 0.7 -0.1
v -0.2 0.7 -0.2
v 0 0.7 -0.2
v -0.1 0.8 0.2
v 0 0.8 0.2
v -0.2 0.8 0.1
v -0.1 0.8 0.1
v 0 0.8 0.1
v -0.2 0.8 0
v 0 0.8 0
v -0.1 0.1 0.2
v 0 0.1 0.2
v -0.2 0.1 0.1
v -0.1 0.1 0.1
v -0.2 0.1 0
v 0 0.1 0
v 0.1 0.2 0.2
v 0.2 0.2 0.2
v 0.1 0.2 0
v 0.2 0.2 0
v -0.2 0.2 -0.1
v -0.1 0.2 -0.1
v 0 0.2 -0.1
v -0.2 0.2 -0.2
v 0 0.2 -0.2
v -0.2 0.9 0.3
v 0.1 0.9 0.3
v -0.3 0.9 0.2
v -0.2 0.9 0.2
v 0.1 0.9 0.2
v 0.2 0.9 0.2
v -0.2 0.9 0.1
v -0.1 0.9 0.1
v 0 0.9 0.1
v -0.2 0.9 0
v -0.1 0.9 0
v 0 0.9 0
v 0.1 0.9 0
v 0.2 0.9 0
v -0.3 0.9 -0.1
v -0.2 0.9 -0.1
v 0 0.9 -0.1
v 0.1 0.9 -0.1
v -0.2 0.9 -0.2
v 0 0.9 -0.2
v -0.2 1 0.1
v -0.1 1 0.1
v 0 1 0.1
v -0.2 1 0
v -0.1 1 0
v 0 1 0

# faces
f 3/3/1 2/3/1 1/3/1
f 4/3/1 2/3/1 3/3/1
f 5/1/1 4/1/1 3/1/1
f 6/1/1 4/1/1 5/1/1
f 11/1/1 10/1/1 9/1/1
f 12/1/1 10/1/1 11/1/1
f 15/3/1 8/3/1 7/3/1
f 16/3/1 8/3/1 15/3/1
f 17/1/1 14/1/1 13/1/1
f 18/1/1 16/1/1 15/1/1
f 19/1/1 16/1/1 18/1/1
f 22/1/1 14/1/1 17/1/1
f 23/1/1 14/1/1 22/1/1
f 24/2/1 21/2/1 20/2/1
f 25/2/1 21/2/1 24/2/1
f 28/4/1 27/4/1 26/4/1
f 29/4/1 27/4/1 28/4/1
f 30/3/1 29/3/1 28/3/1
f 31/3/1 29/3/1 30/3/1
f 32/3/1 30/3/1 28/3/1
f 33/1/1 31/1/1 30/1/1
f 33/3/1 30/3/1 32/3/1
f 34/1/1 31/1/1 33/1/1
f 35/4/1 33/4/1 32/4/1
f 35/4/1 34/4/1 33/4/1
f 36/4/1 34/4/1 35/4/1
f 37/4/1 34/4/1 36/4/1
f 38/3/2 39/3/2 40/3/2
f 38/3/2 40/3/2 41/3/2
f 38/3/2 41/3/2 42/3/2
f 42/3/2 41/3/2 43/3/2
f 44/4/2 45/4/2 46/4/2
f 46/4/2 45/4/2 47/4/2
f 48/1/2 49/1/2 50/1/2
f 50/1/2 49/1/2 51/1/2
f 52/1/2 53/1/2 54/1/2
f 54/1/2 53/1/2 57/1/2
f 57/1/2 53/1/2 58/1/2
f 55/4/2 56/4/2 59/4/2
f 59/4/2 56/4/2 60/4/2
f 61/3/2 62/3/2 65/3/2
f 63/3/2 64/3/2 66/3/2
f 65/3/2 66/3/2 67/3/2
f 66/3/2 64/3/2 68/3/2
f 67/3/2 66/3/2 68/3/2
f 61/3/2 65/3/2 69/3/2
f 65/3/2 67/3/2 69/3/2
f 67/1/2 68/1/2 70/1/2
f 69/3/2 67/3/2 70/3/2
f 70/1/2 68/1/2 71/1/2
f 71/1/2 68/1/2 72/1/2
f 61/3/2 69/3/2 73/3/2
f 73/3/2 69/3/2 74/3/2
f 71/3/2 72/3/2 75/3/2
f 75/3/2 72/3/2 76/3/2
f 73/1/2 74/1/2 77/1/2
f 77/1/2 74/1/2 78/1/2
f 75/1/2 76/1/2 79/1/2
f 79/1/2 76/1/2 80/1/2
f 81/1/2 82/1/2 83/1/2
f 83/1/2 82/1/2 84/1/2
f 85/1/2 86/1/2 87/1/2
f 87/1/2 86/1/2 88/1/2
f 92/3/3 90/3/3 89/3/3
f 93/1/3 91/1/3 90/1/3
f 93/3/3 90/3/3 92/3/3
f 94/1/3 91/1/3 93/1/3
f 98/3/3 96/3/3 95/3/3
f 99/1/3 97/1/3 96/1/3
f 99/3/3 96/3/3 98/3/3
f 100/1/3 97/1/3 99/1/3
f 106/1/3 102/1/3 101/1/3
f 107/1/3 102/1/3 106/1/3
f 108/1/3 105/1/3 104/1/3
f 108/1/3 104/1/3 103/1/3
f 109/1/3 105/1/3 108/1/3
f 112/2/3 111/2/3 110/2/3
f 113/2/3 111/2/3 112/2/3
f 114/4/3 113/4/3 112/4/3
f 115/4/3 113/4/3 114/4/3
f 120/4/3 117/4/3 116/4/3
f 120/3/3 118/3/3 117/3/3
f 121/4/3 119/4/3 118/4/3
f 121/3/3 118/3/3 120/3/3
f 122/4/3 120/4/3 116/4/3
f 123/1/3 121/1/3 120/1/3
f 123/4/3 120/4/3 122/4/3
f 124/1/3 121/1/3 123/1/3
f 125/4/3 119/4/3 121/4/3
f 125/1/3 121/1/3 124/1/3
f 126/4/3 119/4/3 125/4/3
f 127/3/4 128/3/4 129/3/4
f 129/3/4 128/3/4 130/3/4
f 130/3/4 128/3/4 131/3/4
f 131/3/4 128/3/4 132/3/4
f 133/4/4 134/4/4 135/4/4
f 135/4/4 134/4/4 136/4/4
f 137/2/4 138/2/4 139/2/4
f 139/2/4 138/2/4 140/2/4
f 139/4/4 140/4/4 141/4/4
f 141/4/4 140/4/4 142/4/4
f 143/1/4 144/1/4 148/1/4
f 148/1/4 144/1/4 149/1/4
f 146/1/4 147/1/4 150/1/4
f 145/1/4 146/1/4 150/1/4
f 150/1/4 147/1/4 151/1/4
f 152/3/4 153/3/4 155/3/4
f 155/3/4 153/3/4 156/3/4
f 156/3/4 153/3/4 157/3/4
f 153/1/4 154/1/4 158/1/4
f 157/3/4 153/3/4 158/3/4
f 158/1/4 154/1/4 159/1/4
f 156/3/4 157/3/4 160/3/4
f 160/3/4 157/3/4 161/3/4
f 160/1/4 161/1/4 163/1/4
f 163/1/4 161/1/4 164/1/4
f 164/1/4 161/1/4 165/1/4
f 162/3/4 163/3/4 168/3/4
f 163/3/4 164/3/4 168/3/4
f 164/1/4 165/1/4 169/1/4
f 168/3/4 164/3/4 169/3/4
f 165/3/4 166/3/4 170/3/4
f 169/1/4 165/1/4 170/1/4
f 166/1/4 167/1/4 171/1/4
f 170/3/4 166/3/4 171/3/4
f 171/1/4 167/1/4 172/1/4
f 173/1/4 174/1/4 177/1/4
f 177/1/4 174/1/4 178/1/4
f 175/1/4 176/1/4 179/1/4
f 179/1/4 176/1/4 180/1/4
f 184/3/5 182/3/5 181/3/5
f 185/3/5 182/3/5 184/3/5
f 187/4/5 185/4/5 184/4/5
f 188/1/5 186/1/5 185/1/5
f 188/4/5 185/4/5 187/4/5
f 189/1/5 186/1/5 188/1/5
f 190/3/5 184/3/5 183/3/5
f 191/4/5 187/4/5 184/4/5
f 191/3/5 184/3/5 190/3/5
f 192/3/5 188/3/5 187/3/5
f 192/4/5 187/4/5 191/4/5
f 193/3/5 188/3/5 192/3/5
f 194/1/5 192/1/5 191/1/5
f 195/1/5 192/1/5 194/1/5
f 198/1/5 197/1/5 196/1/5
f 199/1/5 197/1/5 198/1/5
f 200/1/5 197/1/5 199/1/5
f 204/1/5 202/1/5 201/1/5
f 204/1/5 203/1/5 202/1/5
f 205/1/5 203/1/5 204/1/5
f 209/3/5 207/3/5 206/3/5
f 210/3/5 207/3/5 209/3/5
f 211/4/5 209/4/5 208/4/5
f 211/4/5 210/4/5 209/4/5
f 212/4/5 210/4/5 211/4/5
f 213/4/6 214/4/6 216/4/6
f 215/4/6 216/4/6 217/4/6
f 216/4/6 214/4/6 218/4/6
f 217/4/6 216/4/6 218/4/6
f 219/1/6 220/1/6 221/1/6
f 221/1/6 220/1/6 222/1/6
f 223/1/6 224/1/6 226/1/6
f 224/1/6 225/1/6 226/1/6
f 226/1/6 225/1/6 227/1/6
f 228/1/6 229/1/6 231/1/6
f 231/1/6 229/1/6 232/1/6
f 230/1/6 231/1/6 234/1/6
f 231/3/6 232/3/6 234/3/6
f 234/3/6 232/3/6 235/3/6
f 235/3/6 232/3/6 236/3/6
f 230/1/6 234/1/6 237/1/6
f 236/3/6 232/3/6 239/3/6
f 232/1/6 233/1/6 240/1/6
f 239/3/6 232/3/6 240/3/6
f 240/1/6 233/1/6 241/1/6
f 230/1/6 237/1/6 242/1/6
f 238/3/6 239/3/6 243/3/6
f 242/1/6 237/1/6 243/1/6
f 237/3/6 238/3/6 243/3/6
f 239/1/6 240/1/6 244/1/6
f 243/3/6 239/3/6 244/3/6
f 244/1/6 240/1/6 245/1/6
f 243/1/6 244/1/6 246/1/6
f 246/1/6 244/1/6 247/1/6
f 248/2/6 249/2/6 251/2/6
f 249/4/6 250/4/6 252/4/6
f 251/2/6 249/2/6 252/2/6
f 252/4/6 250/4/6 253/4/6
