# MagicaVoxel @ Ephtracy

# group
o stekkie

# material
mtllib stekkie.mtl
usemtl palette

# normals
vn -1 0 0
vn 1 0 0
vn 0 0 1
vn 0 0 -1
vn 0 -1 0
vn 0 1 0

# texcoords
vt 0.580078 0.5
vt 0.583984 0.5
vt 0.599609 0.5
vt 0.654297 0.5

# verts
v -0.3 0.4 0.1
v -0.3 0.4 -2.98023e-08
v -0.3 0.8 0.1
v -0.3 0.8 -2.98023e-08
v -0.2 0.4 -2.98023e-08
v -0.2 0.4 -0.2
v -0.2 0.5 0.2
v -0.2 0.5 0.1
v -0.2 0.6 0.2
v -0.2 0.6 0.1
v -0.2 0.6 -2.98023e-08
v -0.2 0.6 -0.1
v -0.2 0.7 0.2
v -0.2 0.7 0.1
v -0.2 0.7 -2.98023e-08
v -0.2 0.7 -0.1
v -0.2 0.7 -0.2
v -0.2 0.8 0.1
v -0.2 0.8 -2.98023e-08
v -0.2 0.8 -0.2
v -0.2 1 0.1
v -0.2 1 -2.98023e-08
v -0.2 1.1 -2.98023e-08
v -0.2 1.1 -0.2
v -0.2 1.3 -2.98023e-08
v -0.2 1.3 -0.1
v -0.2 1.5 -2.98023e-08
v -0.2 1.5 -0.1
v -0.1 0 -2.98023e-08
v -0.1 0 -0.1
v -0.1 0.1 -2.98023e-08
v -0.1 0.1 -0.1
v -0.1 0.1 -0.2
v -0.1 0.2 -0.1
v -0.1 0.2 -0.2
v -0.1 0.3 -2.98023e-08
v -0.1 0.3 -0.1
v -0.1 0.4 -2.98023e-08
v -0.1 0.4 -0.1
v -0.1 0.4 -0.2
v -0.1 0.4 -0.3
v -0.1 0.5 -0.2
v -0.1 0.5 -0.3
v -0.1 0.7 -2.98023e-08
v -0.1 0.7 -0.1
v -0.1 0.7 -0.2
v -0.1 0.8 -2.98023e-08
v -0.1 0.8 -0.2
v -0.1 1.1 -2.98023e-08
v -0.1 1.1 -0.1
v -0.1 1.1 -0.2
v -0.1 1.2 -0.2
v -0.1 1.2 -0.3
v -0.1 1.3 -2.98023e-08
v -0.1 1.3 -0.1
v -0.1 1.4 -0.2
v -0.1 1.4 -0.3
v -0.1 1.5 -2.98023e-08
v -0.1 1.5 -0.1
v -0.1 1.5 -0.2
v -0.1 1.5 -0.3
v -0.1 1.9 -2.98023e-08
v -0.1 1.9 -0.1
v -0.1 2 -2.98023e-08
v -0.1 2 -0.1
v -0.1 2 -0.2
v 2.98023e-08 0 -0.1
v 2.98023e-08 0 -0.2
v 2.98023e-08 0.1 -0.1
v 2.98023e-08 0.1 -0.2
v 2.98023e-08 0.2 -0.1
v 2.98023e-08 0.2 -0.2
v 2.98023e-08 0.3 -0.1
v 2.98023e-08 0.4 -0.1
v 2.98023e-08 0.4 -0.2
v 2.98023e-08 1 0.1
v 2.98023e-08 1 -2.98023e-08
v 2.98023e-08 1.1 0.1
v 2.98023e-08 1.1 -2.98023e-08
v 2.98023e-08 1.6 -0.2
v 2.98023e-08 1.6 -0.3
v 2.98023e-08 1.7 -0.2
v 2.98023e-08 1.7 -0.3
v 0.1 0.4 0.2
v 0.1 0.4 0.1
v 0.1 0.5 0.2
v 0.1 0.5 0.1
v -0.2 0.7 0.1
v -0.2 0.7 -2.98023e-08
v -0.2 0.8 0.1
v -0.2 0.8 -2.98023e-08
v 2.98023e-08 0.4 -0.2
v 2.98023e-08 0.4 -0.3
v 2.98023e-08 0.5 -0.2
v 2.98023e-08 0.5 -0.3
v 2.98023e-08 0.6 -0.1
v 2.98023e-08 0.6 -0.2
v 2.98023e-08 0.7 -0.1
v 2.98023e-08 0.7 -0.2
v 2.98023e-08 0.8 0.1
v 2.98023e-08 0.8 -2.98023e-08
v 2.98023e-08 0.9 0.1
v 2.98023e-08 0.9 -2.98023e-08
v 0.1 0.6 0.2
v 0.1 0.6 0.1
v 0.1 0.7 0.2
v 0.1 0.7 0.1
v 0.1 0.7 -2.98023e-08
v 0.1 0.7 -0.1
v 0.1 0.7 -0.2
v 0.1 0.9 -2.98023e-08
v 0.1 0.9 -0.1
v 0.1 1.1 -2.98023e-08
v 0.1 1.1 -0.1
v 0.1 1.2 -2.98023e-08
v 0.1 1.2 -0.1
v 0.1 1.2 -0.2
v 0.1 1.2 -0.3
v 0.1 1.4 -0.2
v 0.1 1.4 -0.3
v 0.1 1.5 -2.98023e-08
v 0.1 1.5 -0.1
v 0.1 1.5 -0.2
v 0.1 1.6 -2.98023e-08
v 0.1 1.6 -0.1
v 0.1 1.6 -0.2
v 0.1 1.6 -0.3
v 0.1 1.7 -0.2
v 0.1 1.7 -0.3
v 0.1 1.8 -2.98023e-08
v 0.1 1.8 -0.1
v 0.1 1.8 -0.2
v 0.1 1.9 -2.98023e-08
v 0.1 1.9 -0.1
v 0.1 1.9 -0.2
v 0.1 2 -2.98023e-08
v 0.1 2 -0.1
v 0.1 2 -0.2
v 0.2 0 -2.98023e-08
v 0.2 0 -0.2
v 0.2 0.4 0.2
v 0.2 0.4 0.1
v 0.2 0.4 -2.98023e-08
v 0.2 0.4 -0.2
v 0.2 0.5 -0.1
v 0.2 0.5 -0.2
v 0.2 0.6 0.2
v 0.2 0.6 0.1
v 0.2 0.6 -2.98023e-08
v 0.2 0.6 -0.1
v 0.2 0.6 -0.2
v 0.2 0.7 -2.98023e-08
v 0.2 0.7 -0.1
v 0.2 0.9 0.1
v 0.2 0.9 -0.1
v 0.2 1.1 0.1
v 0.2 1.1 -0.1
v 0.2 1.2 -2.98023e-08
v 0.2 1.2 -0.2
v 0.2 1.4 -0.2
v 0.2 1.4 -0.3
v 0.2 1.5 -2.98023e-08
v 0.2 1.5 -0.3
v 0.2 1.6 -2.98023e-08
v 0.2 1.6 -0.2
v 0.2 1.8 -2.98023e-08
v 0.2 1.8 -0.2
v 0.3 0.4 0.1
v 0.3 0.4 -0.2
v 0.3 0.5 -0.1
v 0.3 0.5 -0.2
v 0.3 0.6 -2.98023e-08
v 0.3 0.6 -0.1
v 0.3 0.7 0.1
v 0.3 0.7 -2.98023e-08
v -0.2 0.5 0.2
v -0.2 0.6 0.2
v -0.2 0.7 0.2
v -0.1 0.5 0.2
v -0.1 0.6 0.2
v 0.1 0.4 0.2
v 0.1 0.5 0.2
v 0.1 0.6 0.2
v 0.1 0.7 0.2
v 0.2 0.4 0.2
v 0.2 0.6 0.2
v -0.3 0.4 0.1
v -0.3 0.8 0.1
v -0.2 0.4 0.1
v -0.2 0.5 0.1
v -0.2 0.6 0.1
v -0.2 0.7 0.1
v -0.2 0.8 0.1
v -0.2 1 0.1
v -0.1 0.4 0.1
v -0.1 0.5 0.1
v -0.1 0.8 0.1
v -0.1 0.9 0.1
v -0.1 1 0.1
v 2.98023e-08 0.4 0.1
v 2.98023e-08 0.5 0.1
v 2.98023e-08 0.8 0.1
v 2.98023e-08 0.9 0.1
v 2.98023e-08 1 0.1
v 2.98023e-08 1.1 0.1
v 0.1 0.4 0.1
v 0.1 0.5 0.1
v 0.1 0.6 0.1
v 0.1 0.7 0.1
v 0.2 0.4 0.1
v 0.2 0.6 0.1
v 0.2 0.9 0.1
v 0.2 1.1 0.1
v 0.3 0.4 0.1
v 0.3 0.7 0.1
v -0.2 1 -2.98023e-08
v -0.2 1.1 -2.98023e-08
v -0.2 1.3 -2.98023e-08
v -0.2 1.5 -2.98023e-08
v -0.1 0 -2.98023e-08
v -0.1 0.1 -2.98023e-08
v -0.1 0.3 -2.98023e-08
v -0.1 0.4 -2.98023e-08
v -0.1 0.7 -2.98023e-08
v -0.1 0.8 -2.98023e-08
v -0.1 1 -2.98023e-08
v -0.1 1.1 -2.98023e-08
v -0.1 1.3 -2.98023e-08
v -0.1 1.5 -2.98023e-08
v -0.1 1.9 -2.98023e-08
v -0.1 2 -2.98023e-08
v 2.98023e-08 0 -2.98023e-08
v 2.98023e-08 0.1 -2.98023e-08
v 2.98023e-08 0.3 -2.98023e-08
v 2.98023e-08 0.4 -2.98023e-08
v 2.98023e-08 0.8 -2.98023e-08
v 2.98023e-08 0.9 -2.98023e-08
v 2.98023e-08 1 -2.98023e-08
v 2.98023e-08 1.1 -2.98023e-08
v 2.98023e-08 1.3 -2.98023e-08
v 2.98023e-08 1.8 -2.98023e-08
v 2.98023e-08 1.9 -2.98023e-08
v 2.98023e-08 2 -2.98023e-08
v 0.1 0.4 -2.98023e-08
v 0.1 0.7 -2.98023e-08
v 0.1 0.9 -2.98023e-08
v 0.1 1.1 -2.98023e-08
v 0.1 1.2 -2.98023e-08
v 0.1 1.3 -2.98023e-08
v 0.1 1.5 -2.98023e-08
v 0.1 1.6 -2.98023e-08
v 0.1 1.8 -2.98023e-08
v 0.1 1.9 -2.98023e-08
v 0.1 2 -2.98023e-08
v 0.2 0 -2.98023e-08
v 0.2 0.4 -2.98023e-08
v 0.2 1.2 -2.98023e-08
v 0.2 1.5 -2.98023e-08
v 0.2 1.6 -2.98023e-08
v 0.2 1.8 -2.98023e-08
v -0.3 0.4 -2.98023e-08
v -0.3 0.8 -2.98023e-08
v -0.2 0.4 -2.98023e-08
v -0.2 0.6 -2.98023e-08
v -0.2 0.7 -2.98023e-08
v -0.2 0.8 -2.98023e-08
v 0.2 0.6 -2.98023e-08
v 0.2 0.7 -2.98023e-08
v 0.3 0.6 -2.98023e-08
v 0.3 0.7 -2.98023e-08
v -0.2 1.3 -0.1
v -0.2 1.5 -0.1
v -0.1 0 -0.1
v -0.1 0.1 -0.1
v -0.1 0.2 -0.1
v -0.1 0.3 -0.1
v -0.1 0.4 -0.1
v -0.1 1.3 -0.1
v -0.1 1.5 -0.1
v 2.98023e-08 0 -0.1
v 2.98023e-08 0.1 -0.1
v 2.98023e-08 0.2 -0.1
v 2.98023e-08 0.3 -0.1
v 2.98023e-08 0.4 -0.1
v 2.98023e-08 0.6 -0.1
v 2.98023e-08 0.7 -0.1
v 0.1 0.6 -0.1
v 0.1 0.7 -0.1
v 0.1 0.9 -0.1
v 0.1 1.1 -0.1
v 0.2 0.5 -0.1
v 0.2 0.6 -0.1
v 0.2 0.7 -0.1
v 0.2 0.9 -0.1
v 0.2 1.1 -0.1
v 0.3 0.5 -0.1
v 0.3 0.6 -0.1
v -0.2 0.4 -0.2
v -0.2 0.7 -0.2
v -0.2 0.8 -0.2
v -0.2 1.1 -0.2
v -0.1 0.1 -0.2
v -0.1 0.2 -0.2
v -0.1 0.4 -0.2
v -0.1 0.5 -0.2
v -0.1 0.6 -0.2
v -0.1 0.7 -0.2
v -0.1 0.8 -0.2
v -0.1 1.1 -0.2
v -0.1 1.2 -0.2
v -0.1 1.5 -0.2
v -0.1 2 -0.2
v 2.98023e-08 0 -0.2
v 2.98023e-08 0.1 -0.2
v 2.98023e-08 0.2 -0.2
v 2.98023e-08 0.4 -0.2
v 2.98023e-08 0.5 -0.2
v 2.98023e-08 0.6 -0.2
v 2.98023e-08 0.7 -0.2
v 2.98023e-08 1.2 -0.2
v 2.98023e-08 1.5 -0.2
v 2.98023e-08 1.6 -0.2
v 2.98023e-08 1.7 -0.2
v 2.98023e-08 1.8 -0.2
v 2.98023e-08 1.9 -0.2
v 2.98023e-08 2 -0.2
v 0.1 0 -0.2
v 0.1 0.4 -0.2
v 0.1 0.7 -0.2
v 0.1 1.2 -0.2
v 0.1 1.4 -0.2
v 0.1 1.5 -0.2
v 0.1 1.6 -0.2
v 0.1 1.7 -0.2
v 0.1 1.8 -0.2
v 0.1 1.9 -0.2
v 0.1 2 -0.2
v 0.2 0 -0.2
v 0.2 0.4 -0.2
v 0.2 0.5 -0.2
v 0.2 0.6 -0.2
v 0.2 1.2 -0.2
v 0.2 1.4 -0.2
v 0.2 1.6 -0.2
v 0.2 1.8 -0.2
v 0.3 0.4 -0.2
v 0.3 0.5 -0.2
v -0.1 0.4 -0.3
v -0.1 0.5 -0.3
v -0.1 1.2 -0.3
v -0.1 1.4 -0.3
v -0.1 1.5 -0.3
v 2.98023e-08 0.4 -0.3
v 2.98023e-08 0.5 -0.3
v 2.98023e-08 1.4 -0.3
v 2.98023e-08 1.5 -0.3
v 2.98023e-08 1.6 -0.3
v 2.98023e-08 1.7 -0.3
v 0.1 1.2 -0.3
v 0.1 1.4 -0.3
v 0.1 1.6 -0.3
v 0.1 1.7 -0.3
v 0.2 1.4 -0.3
v 0.2 1.5 -0.3
v -0.1 0 -2.98023e-08
v 2.98023e-08 0 -2.98023e-08
v 0.2 0 -2.98023e-08
v -0.1 0 -0.1
v 2.98023e-08 0 -0.1
v 0.1 0 -0.1
v 2.98023e-08 0 -0.2
v 0.1 0 -0.2
v 0.2 0 -0.2
v -0.1 0.1 -0.1
v 2.98023e-08 0.1 -0.1
v -0.1 0.1 -0.2
v 2.98023e-08 0.1 -0.2
v 0.1 0.4 0.2
v 0.2 0.4 0.2
v -0.3 0.4 0.1
v -0.2 0.4 0.1
v -0.1 0.4 0.1
v 2.98023e-08 0.4 0.1
v 0.1 0.4 0.1
v 0.2 0.4 0.1
v 0.3 0.4 0.1
v -0.3 0.4 -2.98023e-08
v -0.2 0.4 -2.98023e-08
v -0.1 0.4 -2.98023e-08
v 2.98023e-08 0.4 -2.98023e-08
v 0.1 0.4 -2.98023e-08
v 0.2 0.4 -2.98023e-08
v -0.1 0.4 -0.1
v 2.98023e-08 0.4 -0.1
v -0.2 0.4 -0.2
v -0.1 0.4 -0.2
v 2.98023e-08 0.4 -0.2
v 0.2 0.4 -0.2
v 0.3 0.4 -0.2
v -0.1 0.4 -0.3
v 2.98023e-08 0.4 -0.3
v -0.2 0.5 0.2
v -0.1 0.5 0.2
v 0.1 0.5 0.2
v -0.2 0.5 0.1
v -0.1 0.5 0.1
v 2.98023e-08 0.5 0.1
v 0.1 0.5 0.1
v 2.98023e-08 0.7 -0.1
v 0.1 0.7 -0.1
v 2.98023e-08 0.7 -0.2
v 0.1 0.7 -0.2
v -0.2 0.8 0.1
v -0.1 0.8 0.1
v 2.98023e-08 0.8 0.1
v -0.2 0.8 -2.98023e-08
v -0.1 0.8 -2.98023e-08
v 2.98023e-08 0.8 -2.98023e-08
v -0.2 0.8 -0.2
v -0.1 0.8 -0.2
v 2.98023e-08 0.9 0.1
v 0.2 0.9 0.1
v 2.98023e-08 0.9 -2.98023e-08
v 0.1 0.9 -2.98023e-08
v 0.1 0.9 -0.1
v 0.2 0.9 -0.1
v 0.1 1.2 -2.98023e-08
v 0.2 1.2 -2.98023e-08
v 0.1 1.2 -0.1
v -0.1 1.2 -0.2
v 2.98023e-08 1.2 -0.2
v 0.1 1.2 -0.2
v 0.2 1.2 -0.2
v -0.1 1.2 -0.3
v 0.1 1.2 -0.3
v -0.2 1.3 -2.98023e-08
v -0.1 1.3 -2.98023e-08
v -0.2 1.3 -0.1
v -0.1 1.3 -0.1
v 0.1 1.4 -0.2
v 0.2 1.4 -0.2
v 0.1 1.4 -0.3
v 0.2 1.4 -0.3
v 0.1 1.6 -2.98023e-08
v 0.2 1.6 -2.98023e-08
v 0.1 1.6 -0.1
v 2.98023e-08 1.6 -0.2
v 0.1 1.6 -0.2
v 0.2 1.6 -0.2
v 2.98023e-08 1.6 -0.3
v 0.1 1.6 -0.3
v -0.1 0.2 -0.1
v 2.98023e-08 0.2 -0.1
v -0.1 0.2 -0.2
v 2.98023e-08 0.2 -0.2
v 0.2 0.5 -0.1
v 0.3 0.5 -0.1
v -0.1 0.5 -0.2
v 2.98023e-08 0.5 -0.2
v 0.2 0.5 -0.2
v 0.3 0.5 -0.2
v -0.1 0.5 -0.3
v 2.98023e-08 0.5 -0.3
v 0.1 0.6 0.2
v 0.2 0.6 0.2
v 0.1 0.6 0.1
v 0.2 0.6 0.1
v 0.2 0.6 -2.98023e-08
v 0.3 0.6 -2.98023e-08
v 2.98023e-08 0.6 -0.1
v 0.1 0.6 -0.1
v 0.2 0.6 -0.1
v 0.3 0.6 -0.1
v 2.98023e-08 0.6 -0.2
v 0.2 0.6 -0.2
v -0.2 0.7 0.2
v 0.1 0.7 0.2
v -0.2 0.7 0.1
v 0.1 0.7 0.1
v 0.3 0.7 0.1
v -0.2 0.7 -2.98023e-08
v -0.1 0.7 -2.98023e-08
v 0.1 0.7 -2.98023e-08
v 0.2 0.7 -2.98023e-08
v 0.3 0.7 -2.98023e-08
v -0.2 0.7 -0.1
v -0.1 0.7 -0.1
v 0.1 0.7 -0.1
v 0.2 0.7 -0.1
v -0.2 0.7 -0.2
v -0.1 0.7 -0.2
v -0.3 0.8 0.1
v -0.2 0.8 0.1
v -0.3 0.8 -2.98023e-08
v -0.2 0.8 -2.98023e-08
v -0.2 1 0.1
v -0.1 1 0.1
v 2.98023e-08 1 0.1
v -0.2 1 -2.98023e-08
v -0.1 1 -2.98023e-08
v 2.98023e-08 1 -2.98023e-08
v 2.98023e-08 1.1 0.1
v 0.2 1.1 0.1
v -0.2 1.1 -2.98023e-08
v -0.1 1.1 -2.98023e-08
v 2.98023e-08 1.1 -2.98023e-08
v 0.1 1.1 -2.98023e-08
v -0.1 1.1 -0.1
v 0.1 1.1 -0.1
v 0.2 1.1 -0.1
v -0.2 1.1 -0.2
v -0.1 1.1 -0.2
v -0.2 1.5 -2.98023e-08
v -0.1 1.5 -2.98023e-08
v 0.1 1.5 -2.98023e-08
v 0.2 1.5 -2.98023e-08
v -0.2 1.5 -0.1
v -0.1 1.5 -0.1
v 0.1 1.5 -0.1
v -0.1 1.5 -0.2
v 2.98023e-08 1.5 -0.2
v 0.1 1.5 -0.2
v -0.1 1.5 -0.3
v 2.98023e-08 1.5 -0.3
v 0.2 1.5 -0.3
v 2.98023e-08 1.7 -0.2
v 0.1 1.7 -0.2
v 2.98023e-08 1.7 -0.3
v 0.1 1.7 -0.3
v 0.1 1.8 -2.98023e-08
v 0.2 1.8 -2.98023e-08
v 0.1 1.8 -0.1
v 0.1 1.8 -0.2
v 0.2 1.8 -0.2
v -0.1 2 -2.98023e-08
v 2.98023e-08 2 -2.98023e-08
v 0.1 2 -2.98023e-08
v -0.1 2 -0.1
v 2.98023e-08 2 -0.1
v 0.1 2 -0.1
v -0.1 2 -0.2
v 2.98023e-08 2 -0.2
v 0.1 2 -0.2

# faces
f 3/2/1 2/2/1 1/2/1
f 4/2/1 2/2/1 3/2/1
f 9/4/1 8/4/1 7/4/1
f 10/4/1 8/4/1 9/4/1
f 11/2/1 6/2/1 5/2/1
f 12/2/1 6/2/1 11/2/1
f 13/2/1 10/2/1 9/2/1
f 14/2/1 10/2/1 13/2/1
f 15/4/1 12/4/1 11/4/1
f 16/2/1 6/2/1 12/2/1
f 16/4/1 12/4/1 15/4/1
f 17/2/1 6/2/1 16/2/1
f 21/2/1 19/2/1 18/2/1
f 21/2/1 20/2/1 19/2/1
f 22/2/1 20/2/1 21/2/1
f 23/2/1 20/2/1 22/2/1
f 24/2/1 20/2/1 23/2/1
f 27/2/1 26/2/1 25/2/1
f 28/2/1 26/2/1 27/2/1
f 31/3/1 30/3/1 29/3/1
f 32/3/1 30/3/1 31/3/1
f 34/4/1 32/4/1 31/4/1
f 34/2/1 33/2/1 32/2/1
f 35/2/1 33/2/1 34/2/1
f 36/4/1 34/4/1 31/4/1
f 37/4/1 34/4/1 36/4/1
f 38/3/1 37/3/1 36/3/1
f 39/3/1 37/3/1 38/3/1
f 42/4/1 41/4/1 40/4/1
f 43/4/1 41/4/1 42/4/1
f 47/3/1 45/3/1 44/3/1
f 47/3/1 46/3/1 45/3/1
f 48/3/1 46/3/1 47/3/1
f 52/3/1 51/3/1 50/3/1
f 54/4/1 50/4/1 49/4/1
f 55/3/1 52/3/1 50/3/1
f 55/4/1 50/4/1 54/4/1
f 56/2/1 53/2/1 52/2/1
f 56/3/1 52/3/1 55/3/1
f 57/2/1 53/2/1 56/2/1
f 59/3/1 56/3/1 55/3/1
f 60/4/1 57/4/1 56/4/1
f 60/3/1 56/3/1 59/3/1
f 61/4/1 57/4/1 60/4/1
f 62/4/1 59/4/1 58/4/1
f 62/4/1 60/4/1 59/4/1
f 63/4/1 60/4/1 62/4/1
f 64/3/1 63/3/1 62/3/1
f 65/4/1 60/4/1 63/4/1
f 65/3/1 63/3/1 64/3/1
f 66/4/1 60/4/1 65/4/1
f 69/3/1 68/3/1 67/3/1
f 70/3/1 68/3/1 69/3/1
f 73/3/1 72/3/1 71/3/1
f 74/3/1 72/3/1 73/3/1
f 75/3/1 72/3/1 74/3/1
f 78/2/1 77/2/1 76/2/1
f 79/2/1 77/2/1 78/2/1
f 82/2/1 81/2/1 80/2/1
f 83/2/1 81/2/1 82/2/1
f 86/2/1 85/2/1 84/2/1
f 87/2/1 85/2/1 86/2/1
f 88/2/2 89/2/2 90/2/2
f 90/2/2 89/2/2 91/2/2
f 92/4/2 93/4/2 94/4/2
f 94/4/2 93/4/2 95/4/2
f 96/4/2 97/4/2 98/4/2
f 98/4/2 97/4/2 99/4/2
f 100/3/2 101/3/2 102/3/2
f 102/3/2 101/3/2 103/3/2
f 104/2/2 105/2/2 106/2/2
f 106/2/2 105/2/2 107/2/2
f 108/3/2 109/3/2 111/3/2
f 109/4/2 110/4/2 112/4/2
f 111/3/2 109/3/2 112/3/2
f 112/4/2 110/4/2 114/4/2
f 113/3/2 114/3/2 115/3/2
f 114/4/2 110/4/2 116/4/2
f 115/3/2 114/3/2 116/3/2
f 116/4/2 110/4/2 117/4/2
f 117/2/2 118/2/2 119/2/2
f 119/2/2 118/2/2 120/2/2
f 121/4/2 122/4/2 124/4/2
f 122/3/2 123/3/2 125/3/2
f 124/4/2 122/4/2 125/4/2
f 125/3/2 123/3/2 126/3/2
f 126/2/2 127/2/2 128/2/2
f 128/2/2 127/2/2 129/2/2
f 130/3/2 131/3/2 133/3/2
f 131/4/2 132/4/2 134/4/2
f 133/3/2 131/3/2 134/3/2
f 134/4/2 132/4/2 135/4/2
f 133/4/2 134/4/2 136/4/2
f 134/3/2 135/3/2 137/3/2
f 136/4/2 134/4/2 137/4/2
f 137/3/2 135/3/2 138/3/2
f 139/4/2 140/4/2 143/4/2
f 143/4/2 140/4/2 144/4/2
f 141/2/2 142/2/2 147/2/2
f 147/2/2 142/2/2 148/2/2
f 145/4/2 146/4/2 150/4/2
f 150/4/2 146/4/2 151/4/2
f 149/2/2 150/2/2 152/2/2
f 152/2/2 150/2/2 153/2/2
f 154/2/2 155/2/2 156/2/2
f 156/2/2 155/2/2 157/2/2
f 158/2/2 159/2/2 160/2/2
f 158/2/2 160/2/2 162/2/2
f 160/2/2 161/2/2 162/2/2
f 162/2/2 161/2/2 163/2/2
f 164/2/2 165/2/2 166/2/2
f 166/2/2 165/2/2 167/2/2
f 168/2/2 169/2/2 170/2/2
f 170/2/2 169/2/2 171/2/2
f 168/2/2 170/2/2 172/2/2
f 172/2/2 170/2/2 173/2/2
f 168/2/2 172/2/2 174/2/2
f 174/2/2 172/2/2 175/2/2
f 179/4/3 177/4/3 176/4/3
f 180/2/3 178/2/3 177/2/3
f 180/4/3 177/4/3 179/4/3
f 182/2/3 180/2/3 179/2/3
f 183/2/3 178/2/3 180/2/3
f 183/2/3 180/2/3 182/2/3
f 184/2/3 178/2/3 183/2/3
f 185/2/3 182/2/3 181/2/3
f 185/2/3 183/2/3 182/2/3
f 186/2/3 183/2/3 185/2/3
f 189/2/3 188/2/3 187/2/3
f 190/2/3 188/2/3 189/2/3
f 191/2/3 188/2/3 190/2/3
f 192/2/3 188/2/3 191/2/3
f 193/2/3 188/2/3 192/2/3
f 195/3/3 190/3/3 189/3/3
f 196/3/3 190/3/3 195/3/3
f 197/2/3 194/2/3 193/2/3
f 198/2/3 194/2/3 197/2/3
f 199/2/3 194/2/3 198/2/3
f 200/4/3 196/4/3 195/4/3
f 201/4/3 196/4/3 200/4/3
f 202/3/3 198/3/3 197/3/3
f 203/4/3 199/4/3 198/4/3
f 203/3/3 198/3/3 202/3/3
f 204/4/3 199/4/3 203/4/3
f 206/3/3 201/3/3 200/3/3
f 207/3/3 201/3/3 206/3/3
f 211/2/3 209/2/3 208/2/3
f 212/2/3 204/2/3 203/2/3
f 212/2/3 205/2/3 204/2/3
f 213/2/3 205/2/3 212/2/3
f 214/2/3 211/2/3 210/2/3
f 215/2/3 209/2/3 211/2/3
f 215/2/3 211/2/3 214/2/3
f 226/2/3 217/2/3 216/2/3
f 227/2/3 217/2/3 226/2/3
f 228/2/3 219/2/3 218/2/3
f 229/2/3 219/2/3 228/2/3
f 232/3/3 221/3/3 220/3/3
f 233/4/3 222/4/3 221/4/3
f 233/3/3 221/3/3 232/3/3
f 234/3/3 223/3/3 222/3/3
f 234/4/3 222/4/3 233/4/3
f 235/3/3 223/3/3 234/3/3
f 236/3/3 225/3/3 224/3/3
f 238/3/3 227/3/3 226/3/3
f 239/4/3 228/4/3 227/4/3
f 239/3/3 227/3/3 238/3/3
f 239/4/3 229/4/3 228/4/3
f 239/4/3 230/4/3 229/4/3
f 240/4/3 230/4/3 239/4/3
f 241/4/3 230/4/3 240/4/3
f 242/3/3 231/3/3 230/3/3
f 242/4/3 230/4/3 241/4/3
f 243/3/3 231/3/3 242/3/3
f 244/4/3 235/4/3 234/4/3
f 244/4/3 233/4/3 232/4/3
f 244/4/3 234/4/3 233/4/3
f 245/3/3 237/3/3 236/3/3
f 245/3/3 236/3/3 224/3/3
f 246/3/3 237/3/3 245/3/3
f 247/3/3 240/3/3 239/3/3
f 248/3/3 240/3/3 247/3/3
f 249/4/3 241/4/3 240/4/3
f 249/3/3 240/3/3 248/3/3
f 250/4/3 241/4/3 249/4/3
f 251/4/3 241/4/3 250/4/3
f 252/3/3 242/3/3 241/3/3
f 252/4/3 241/4/3 251/4/3
f 253/4/3 243/4/3 242/4/3
f 253/3/3 242/3/3 252/3/3
f 254/4/3 243/4/3 253/4/3
f 255/4/3 244/4/3 232/4/3
f 256/4/3 244/4/3 255/4/3
f 257/2/3 250/2/3 249/2/3
f 257/2/3 249/2/3 248/2/3
f 258/2/3 250/2/3 257/2/3
f 259/2/3 252/2/3 251/2/3
f 260/2/3 252/2/3 259/2/3
f 261/2/4 262/2/4 263/2/4
f 263/2/4 262/2/4 264/2/4
f 264/2/4 262/2/4 265/2/4
f 265/2/4 262/2/4 266/2/4
f 267/2/4 268/2/4 269/2/4
f 269/2/4 268/2/4 270/2/4
f 271/2/4 272/2/4 278/2/4
f 278/2/4 272/2/4 279/2/4
f 273/3/4 274/3/4 280/3/4
f 280/3/4 274/3/4 281/3/4
f 275/4/4 276/4/4 282/4/4
f 276/3/4 277/3/4 283/3/4
f 282/4/4 276/4/4 283/4/4
f 283/3/4 277/3/4 284/3/4
f 285/3/4 286/3/4 287/3/4
f 287/3/4 286/3/4 288/3/4
f 287/2/4 288/2/4 292/2/4
f 292/2/4 288/2/4 293/2/4
f 289/2/4 290/2/4 294/2/4
f 294/2/4 290/2/4 295/2/4
f 291/2/4 292/2/4 296/2/4
f 296/2/4 292/2/4 297/2/4
f 298/2/4 299/2/4 304/2/4
f 304/2/4 299/2/4 305/2/4
f 305/2/4 299/2/4 306/2/4
f 306/2/4 299/2/4 307/2/4
f 300/2/4 301/2/4 308/2/4
f 308/2/4 301/2/4 309/2/4
f 302/2/4 303/2/4 314/2/4
f 314/2/4 303/2/4 315/2/4
f 305/3/4 306/3/4 317/3/4
f 306/4/4 307/4/4 318/4/4
f 317/3/4 306/3/4 318/3/4
f 309/3/4 310/3/4 319/3/4
f 318/4/4 307/4/4 319/4/4
f 307/3/4 308/3/4 319/3/4
f 308/3/4 309/3/4 319/3/4
f 319/3/4 310/3/4 320/3/4
f 311/4/4 312/4/4 321/4/4
f 321/4/4 312/4/4 322/4/4
f 322/4/4 312/4/4 323/4/4
f 323/4/4 312/4/4 324/4/4
f 324/4/4 312/4/4 325/4/4
f 325/4/4 312/4/4 326/4/4
f 316/3/4 317/3/4 327/3/4
f 315/3/4 316/3/4 327/3/4
f 314/3/4 315/3/4 327/3/4
f 313/3/4 314/3/4 327/3/4
f 327/3/4 317/3/4 328/3/4
f 319/4/4 320/4/4 329/4/4
f 329/4/4 320/4/4 330/4/4
f 321/3/4 322/3/4 332/3/4
f 332/3/4 322/3/4 333/3/4
f 323/3/4 324/3/4 334/3/4
f 324/4/4 325/4/4 335/4/4
f 334/3/4 324/3/4 335/3/4
f 325/3/4 326/3/4 336/3/4
f 335/4/4 325/4/4 336/4/4
f 336/3/4 326/3/4 337/3/4
f 327/4/4 328/4/4 338/4/4
f 328/3/4 317/3/4 339/3/4
f 338/4/4 328/4/4 339/4/4
f 317/4/4 318/4/4 340/4/4
f 339/3/4 317/3/4 340/3/4
f 340/4/4 318/4/4 341/4/4
f 330/2/4 331/2/4 342/2/4
f 342/2/4 331/2/4 343/2/4
f 334/2/4 335/2/4 344/2/4
f 333/2/4 334/2/4 344/2/4
f 344/2/4 335/2/4 345/2/4
f 339/2/4 340/2/4 346/2/4
f 346/2/4 340/2/4 347/2/4
f 348/4/4 349/4/4 353/4/4
f 353/4/4 349/4/4 354/4/4
f 351/4/4 352/4/4 355/4/4
f 350/2/4 351/2/4 355/2/4
f 355/4/4 352/4/4 356/4/4
f 350/2/4 355/2/4 359/2/4
f 355/2/4 356/2/4 359/2/4
f 359/2/4 356/2/4 360/2/4
f 357/2/4 358/2/4 361/2/4
f 361/2/4 358/2/4 362/2/4
f 360/2/4 356/2/4 363/2/4
f 363/2/4 356/2/4 364/2/4
f 368/3/5 366/3/5 365/3/5
f 369/4/5 367/4/5 366/4/5
f 369/3/5 366/3/5 368/3/5
f 370/4/5 367/4/5 369/4/5
f 371/3/5 370/3/5 369/3/5
f 372/4/5 367/4/5 370/4/5
f 372/3/5 370/3/5 371/3/5
f 373/4/5 367/4/5 372/4/5
f 376/2/5 375/2/5 374/2/5
f 377/2/5 375/2/5 376/2/5
f 384/2/5 379/2/5 378/2/5
f 385/2/5 379/2/5 384/2/5
f 387/2/5 381/2/5 380/2/5
f 388/3/5 382/3/5 381/3/5
f 388/2/5 381/2/5 387/2/5
f 389/4/5 383/4/5 382/4/5
f 389/3/5 382/3/5 388/3/5
f 390/3/5 384/3/5 383/3/5
f 390/4/5 383/4/5 389/4/5
f 391/1/5 385/1/5 384/1/5
f 391/3/5 384/3/5 390/3/5
f 392/2/5 386/2/5 385/2/5
f 392/1/5 385/1/5 391/1/5
f 393/2/5 389/2/5 388/2/5
f 395/2/5 393/2/5 388/2/5
f 396/3/5 394/3/5 393/3/5
f 396/2/5 393/2/5 395/2/5
f 397/3/5 394/3/5 396/3/5
f 398/2/5 386/2/5 392/2/5
f 399/2/5 386/2/5 398/2/5
f 400/4/5 397/4/5 396/4/5
f 401/4/5 397/4/5 400/4/5
f 405/4/5 403/4/5 402/4/5
f 406/2/5 404/2/5 403/2/5
f 406/4/5 403/4/5 405/4/5
f 407/2/5 404/2/5 406/2/5
f 408/2/5 404/2/5 407/2/5
f 411/4/5 410/4/5 409/4/5
f 412/4/5 410/4/5 411/4/5
f 416/2/5 414/2/5 413/2/5
f 417/3/5 415/3/5 414/3/5
f 417/2/5 414/2/5 416/2/5
f 418/3/5 415/3/5 417/3/5
f 419/2/5 417/2/5 416/2/5
f 420/2/5 417/2/5 419/2/5
f 423/2/5 422/2/5 421/2/5
f 424/2/5 422/2/5 423/2/5
f 425/2/5 422/2/5 424/2/5
f 426/2/5 422/2/5 425/2/5
f 429/2/5 428/2/5 427/2/5
f 432/2/5 428/2/5 429/2/5
f 433/2/5 428/2/5 432/2/5
f 434/2/5 431/2/5 430/2/5
f 434/2/5 432/2/5 431/2/5
f 435/2/5 432/2/5 434/2/5
f 438/2/5 437/2/5 436/2/5
f 439/2/5 437/2/5 438/2/5
f 442/2/5 441/2/5 440/2/5
f 443/2/5 441/2/5 442/2/5
f 446/2/5 445/2/5 444/2/5
f 448/2/5 445/2/5 446/2/5
f 449/2/5 445/2/5 448/2/5
f 450/2/5 448/2/5 447/2/5
f 451/2/5 448/2/5 450/2/5
f 452/2/6 453/2/6 454/2/6
f 454/2/6 453/2/6 455/2/6
f 456/2/6 457/2/6 460/2/6
f 460/2/6 457/2/6 461/2/6
f 458/4/6 459/4/6 462/4/6
f 462/4/6 459/4/6 463/4/6
f 464/2/6 465/2/6 466/2/6
f 466/2/6 465/2/6 467/2/6
f 468/2/6 469/2/6 472/2/6
f 472/2/6 469/2/6 473/2/6
f 470/4/6 471/4/6 474/4/6
f 471/4/6 472/4/6 474/4/6
f 474/4/6 472/4/6 475/4/6
f 476/2/6 477/2/6 478/2/6
f 478/2/6 477/2/6 479/2/6
f 478/4/6 479/4/6 481/4/6
f 481/4/6 479/4/6 482/4/6
f 479/2/6 480/2/6 483/2/6
f 482/4/6 479/4/6 483/4/6
f 483/2/6 480/2/6 484/2/6
f 484/2/6 480/2/6 485/2/6
f 481/4/6 482/4/6 486/4/6
f 486/4/6 482/4/6 487/4/6
f 483/2/6 484/2/6 488/2/6
f 488/2/6 484/2/6 489/2/6
f 486/2/6 487/2/6 490/2/6
f 490/2/6 487/2/6 491/2/6
f 492/2/6 493/2/6 494/2/6
f 494/2/6 493/2/6 495/2/6
f 496/2/6 497/2/6 499/2/6
f 497/4/6 498/4/6 500/4/6
f 499/2/6 497/2/6 500/2/6
f 500/4/6 498/4/6 501/4/6
f 502/2/6 503/2/6 506/2/6
f 506/2/6 503/2/6 507/2/6
f 504/2/6 505/2/6 508/2/6
f 507/2/6 503/2/6 509/2/6
f 509/2/6 503/2/6 510/2/6
f 504/2/6 508/2/6 511/2/6
f 511/2/6 508/2/6 512/2/6
f 513/2/6 514/2/6 517/2/6
f 517/2/6 514/2/6 518/2/6
f 515/2/6 516/2/6 519/2/6
f 519/2/6 516/2/6 522/2/6
f 520/4/6 521/4/6 523/4/6
f 521/2/6 522/2/6 524/2/6
f 523/4/6 521/4/6 524/4/6
f 522/2/6 516/2/6 525/2/6
f 524/2/6 522/2/6 525/2/6
f 526/2/6 527/2/6 528/2/6
f 528/2/6 527/2/6 529/2/6
f 530/2/6 531/2/6 532/2/6
f 532/2/6 531/2/6 533/2/6
f 533/2/6 531/2/6 534/2/6
f 535/3/6 536/3/6 538/3/6
f 536/4/6 537/4/6 539/4/6
f 538/3/6 536/3/6 539/3/6
f 539/4/6 537/4/6 540/4/6
f 538/4/6 539/4/6 541/4/6
f 539/3/6 540/3/6 542/3/6
f 541/4/6 539/4/6 542/4/6
f 542/3/6 540/3/6 543/3/6
