# MagicaVoxel @ Ephtracy

# group
o young boom 1

# material
mtllib young boom 1-0-young boom 1.mtl
usemtl palette

# normals
vn -1 0 0
vn 1 0 0
vn 0 0 1
vn 0 0 -1
vn 0 -1 0
vn 0 1 0

# texcoords
vt 0.326172 0.5
vt 0.357422 0.5
vt 0.587891 0.5
vt 0.607422 0.5

# verts
v -0.5 1.1 0.2
v -0.5 1.1 0.1
v -0.5 1.1 -2.98023e-08
v -0.5 1.3 0.3
v -0.5 1.3 0.2
v -0.5 1.3 0.1
v -0.5 1.3 -2.98023e-08
v -0.5 1.3 -0.1
v -0.5 1.4 0.3
v -0.5 1.4 0.1
v -0.5 1.5 -2.98023e-08
v -0.5 1.5 -0.1
v -0.5 1.6 0.3
v -0.5 1.6 0.2
v -0.5 1.7 -2.98023e-08
v -0.5 1.7 -0.1
v -0.5 1.8 0.2
v -0.5 1.8 0.1
v -0.5 1.8 -2.98023e-08
v -0.4 1.1 0.3
v -0.4 1.1 0.2
v -0.4 1.1 -2.98023e-08
v -0.4 1.1 -0.1
v -0.4 1.1 -0.2
v -0.4 1.3 0.3
v -0.4 1.3 0.2
v -0.4 1.3 -2.98023e-08
v -0.4 1.3 -0.1
v -0.4 1.3 -0.2
v -0.4 1.3 -0.3
v -0.4 1.5 -0.1
v -0.4 1.5 -0.2
v -0.4 1.6 0.3
v -0.4 1.6 0.2
v -0.4 1.7 0.3
v -0.4 1.7 0.2
v -0.4 1.7 -2.98023e-08
v -0.4 1.7 -0.1
v -0.4 1.7 -0.2
v -0.4 1.7 -0.3
v -0.4 1.8 0.2
v -0.4 1.8 0.1
v -0.4 1.8 -2.98023e-08
v -0.4 1.8 -0.1
v -0.4 1.8 -0.2
v -0.4 1.9 0.2
v -0.4 1.9 0.1
v -0.4 2 0.1
v -0.4 2 -0.1
v -0.3 0.1 0.1
v -0.3 0.1 -2.98023e-08
v -0.3 0.3 0.1
v -0.3 0.3 -2.98023e-08
v -0.3 0.5 0.1
v -0.3 0.5 -2.98023e-08
v -0.3 0.6 0.2
v -0.3 0.6 0.1
v -0.3 0.6 -2.98023e-08
v -0.3 0.6 -0.1
v -0.3 0.9 0.1
v -0.3 0.9 -2.98023e-08
v -0.3 1 0.2
v -0.3 1 0.1
v -0.3 1.1 0.1
v -0.3 1.1 -2.98023e-08
v -0.3 1.1 -0.1
v -0.3 1.2 -0.2
v -0.3 1.2 -0.3
v -0.3 1.3 -0.2
v -0.3 1.3 -0.3
v -0.3 1.7 -0.2
v -0.3 1.7 -0.3
v -0.3 1.8 -0.1
v -0.3 1.8 -0.2
v -0.3 1.8 -0.3
v -0.3 1.9 0.2
v -0.3 1.9 0.1
v -0.3 1.9 -0.1
v -0.3 1.9 -0.2
v -0.3 2 0.2
v -0.3 2 0.1
v -0.3 2 -0.1
v -0.3 2 -0.2
v -0.2 0 0.1
v -0.2 0 -2.98023e-08
v -0.2 0 -0.1
v -0.2 0.1 0.2
v -0.2 0.1 0.1
v -0.2 0.1 -2.98023e-08
v -0.2 0.3 0.1
v -0.2 0.3 -2.98023e-08
v -0.2 0.5 0.1
v -0.2 0.5 -2.98023e-08
v -0.2 0.6 0.2
v -0.2 0.6 0.1
v -0.2 0.6 -2.98023e-08
v -0.2 0.6 -0.1
v -0.1 1.4 0.1
v -0.1 1.4 -0.1
v -0.1 1.5 -2.98023e-08
v -0.1 1.5 -0.1
v -0.1 1.6 0.1
v -0.1 1.6 -2.98023e-08
v 0 1.5 -2.98023e-08
v 0 1.5 -0.1
v 0 1.6 -2.98023e-08
v 0 1.6 -0.1
v -0.3 1.4 0.1
v -0.3 1.4 -2.98023e-08
v -0.3 1.6 0.1
v -0.3 1.6 -2.98023e-08
v -0.2 1.4 -2.98023e-08
v -0.2 1.4 -0.1
v -0.2 1.6 -2.98023e-08
v -0.2 1.6 -0.1
v -0.1 0.3 0.2
v -0.1 0.3 0.1
v -0.1 0.4 0.2
v -0.1 0.4 0.1
v -0.1 0.8 0.2
v -0.1 0.8 0.1
v -0.1 0.8 -2.98023e-08
v -0.1 0.8 -0.1
v -0.1 0.9 0.1
v -0.1 0.9 -2.98023e-08
v -0.1 1 0.2
v -0.1 1 0.1
v -0.1 1.1 0.3
v -0.1 1.1 0.2
v -0.1 1.1 0.1
v -0.1 1.1 -2.98023e-08
v -0.1 1.1 -0.1
v -0.1 1.1 -0.2
v -0.1 1.2 0.3
v -0.1 1.2 0.2
v -0.1 1.2 0.1
v -0.1 1.2 -0.1
v -0.1 1.2 -0.2
v -0.1 1.9 0.2
v -0.1 1.9 0.1
v -0.1 2 0.2
v -0.1 2 0.1
v 0 0 0.1
v 0 0 -0.1
v 0 0.1 0.2
v 0 0.1 0.1
v 0 0.3 0.2
v 0 0.3 0.1
v 0 0.4 0.2
v 0 0.4 0.1
v 0 0.8 0.2
v 0 0.8 0.1
v 0 0.8 -2.98023e-08
v 0 0.8 -0.1
v 0 0.9 0.1
v 0 0.9 -2.98023e-08
v 0 1.1 0.1
v 0 1.1 -2.98023e-08
v 0 1.1 -0.1
v 0 1.2 0.3
v 0 1.2 0.2
v 0 1.2 0.1
v 0 1.2 -2.98023e-08
v 0 1.2 -0.1
v 0 1.2 -0.2
v 0 1.2 -0.3
v 0 1.3 0.3
v 0 1.3 0.2
v 0 1.4 0.2
v 0 1.4 -0.2
v 0 1.4 -0.3
v 0 1.5 0.3
v 0 1.5 0.2
v 0 1.7 -0.2
v 0 1.7 -0.3
v 0 1.8 0.2
v 0 1.8 0.1
v 0 1.8 -0.2
v 0 1.8 -0.3
v 0 1.9 0.2
v 0 1.9 0.1
v 0 1.9 -0.2
v 0 2 0.1
v 0 2 -0.2
v 0.1 1.2 0.2
v 0.1 1.2 -0.2
v 0.1 1.3 0.2
v 0.1 1.3 0.1
v 0.1 1.4 0.2
v 0.1 1.4 0.1
v 0.1 1.4 -0.2
v 0.1 1.4 -0.3
v 0.1 1.5 0.3
v 0.1 1.5 0.2
v 0.1 1.5 0.1
v 0.1 1.5 -0.2
v 0.1 1.7 0.3
v 0.1 1.7 0.2
v 0.1 1.7 -0.2
v 0.1 1.7 -0.3
v 0.1 1.8 0.2
v 0.1 1.8 0.1
v 0.1 1.8 -0.2
v -0.5 1.3 0.3
v -0.5 1.4 0.3
v -0.5 1.6 0.3
v -0.4 1.1 0.3
v -0.4 1.3 0.3
v -0.4 1.6 0.3
v -0.4 1.7 0.3
v -0.3 1.1 0.3
v -0.3 1.2 0.3
v -0.2 1.1 0.3
v -0.2 1.2 0.3
v -0.1 1.1 0.3
v -0.1 1.2 0.3
v -0.1 1.3 0.3
v -0.1 1.4 0.3
v -0.1 1.7 0.3
v 0 1.2 0.3
v 0 1.3 0.3
v 0 1.5 0.3
v 0.1 1.5 0.3
v 0.1 1.7 0.3
v -0.5 1.1 0.2
v -0.5 1.3 0.2
v -0.5 1.6 0.2
v -0.5 1.8 0.2
v -0.4 1.1 0.2
v -0.4 1.3 0.2
v -0.4 1.6 0.2
v -0.4 1.7 0.2
v -0.4 1.8 0.2
v -0.4 1.9 0.2
v -0.3 0.6 0.2
v -0.3 1 0.2
v -0.3 1.9 0.2
v -0.3 2 0.2
v -0.2 0.1 0.2
v -0.2 0.6 0.2
v -0.1 0.1 0.2
v -0.1 0.3 0.2
v -0.1 0.4 0.2
v -0.1 0.8 0.2
v -0.1 1 0.2
v -0.1 1.7 0.2
v -0.1 1.8 0.2
v -0.1 1.9 0.2
v -0.1 2 0.2
v 0 0.1 0.2
v 0 0.3 0.2
v 0 0.4 0.2
v 0 0.8 0.2
v 0 1.2 0.2
v 0 1.3 0.2
v 0 1.4 0.2
v 0 1.5 0.2
v 0 1.8 0.2
v 0 1.9 0.2
v 0.1 1.2 0.2
v 0.1 1.3 0.2
v 0.1 1.4 0.2
v 0.1 1.5 0.2
v 0.1 1.7 0.2
v 0.1 1.8 0.2
v -0.4 1.9 0.1
v -0.4 2 0.1
v -0.3 0.1 0.1
v -0.3 0.3 0.1
v -0.3 0.5 0.1
v -0.3 0.6 0.1
v -0.3 1 0.1
v -0.3 1.1 0.1
v -0.3 1.9 0.1
v -0.3 2 0.1
v -0.2 0 0.1
v -0.2 0.1 0.1
v -0.2 0.3 0.1
v -0.2 0.5 0.1
v -0.2 0.6 0.1
v -0.1 0.1 0.1
v -0.1 0.3 0.1
v -0.1 0.4 0.1
v -0.1 0.8 0.1
v -0.1 0.9 0.1
v -0.1 1 0.1
v -0.1 1.1 0.1
v -0.1 1.2 0.1
v -0.1 1.9 0.1
v -0.1 2 0.1
v 0 0 0.1
v 0 0.1 0.1
v 0 0.3 0.1
v 0 0.4 0.1
v 0 0.8 0.1
v 0 0.9 0.1
v 0 1.1 0.1
v 0 1.2 0.1
v 0 1.9 0.1
v 0 2 0.1
v -0.3 1.4 -2.98023e-08
v -0.3 1.6 -2.98023e-08
v -0.2 1.4 -2.98023e-08
v -0.2 1.6 -2.98023e-08
v -0.2 1.4 -0.1
v -0.2 1.6 -0.1
v -0.1 1.4 -0.1
v -0.1 1.5 -0.1
v 0 1.5 -0.1
v 0 1.6 -0.1
v -0.3 1.4 0.1
v -0.3 1.6 0.1
v -0.1 1.4 0.1
v -0.1 1.6 0.1
v -0.5 1.1 -2.98023e-08
v -0.5 1.3 -2.98023e-08
v -0.5 1.7 -2.98023e-08
v -0.5 1.8 -2.98023e-08
v -0.4 1.1 -2.98023e-08
v -0.4 1.3 -2.98023e-08
v -0.4 1.7 -2.98023e-08
v -0.4 1.8 -2.98023e-08
v -0.3 0.1 -2.98023e-08
v -0.3 0.3 -2.98023e-08
v -0.3 0.5 -2.98023e-08
v -0.3 0.6 -2.98023e-08
v -0.2 0.1 -2.98023e-08
v -0.2 0.3 -2.98023e-08
v -0.2 0.5 -2.98023e-08
v -0.2 0.6 -2.98023e-08
v -0.1 0.8 -2.98023e-08
v -0.1 0.9 -2.98023e-08
v -0.1 1.5 -2.98023e-08
v -0.1 1.6 -2.98023e-08
v 0 0.8 -2.98023e-08
v 0 0.9 -2.98023e-08
v 0 1.5 -2.98023e-08
v 0 1.6 -2.98023e-08
v -0.5 1.3 -0.1
v -0.5 1.5 -0.1
v -0.5 1.7 -0.1
v -0.4 1.3 -0.1
v -0.4 1.5 -0.1
v -0.4 1.7 -0.1
v -0.4 1.8 -0.1
v -0.4 2 -0.1
v -0.3 0.6 -0.1
v -0.3 1.1 -0.1
v -0.3 1.8 -0.1
v -0.3 1.9 -0.1
v -0.3 2 -0.1
v -0.2 0 -0.1
v -0.2 0.6 -0.1
v -0.1 0 -0.1
v -0.1 0.8 -0.1
v -0.1 1.1 -0.1
v -0.1 1.2 -0.1
v 0 0 -0.1
v 0 0.8 -0.1
v 0 1.1 -0.1
v 0 1.2 -0.1
v -0.4 1.1 -0.2
v -0.4 1.3 -0.2
v -0.4 1.7 -0.2
v -0.4 1.8 -0.2
v -0.3 1.2 -0.2
v -0.3 1.3 -0.2
v -0.3 1.7 -0.2
v -0.3 1.8 -0.2
v -0.3 1.9 -0.2
v -0.3 2 -0.2
v -0.1 1.1 -0.2
v -0.1 1.2 -0.2
v 0 1.2 -0.2
v 0 1.4 -0.2
v 0 1.7 -0.2
v 0 1.8 -0.2
v 0 1.9 -0.2
v 0 2 -0.2
v 0.1 1.2 -0.2
v 0.1 1.4 -0.2
v 0.1 1.7 -0.2
v 0.1 1.8 -0.2
v -0.4 1.3 -0.3
v -0.4 1.7 -0.3
v -0.3 1.2 -0.3
v -0.3 1.3 -0.3
v -0.3 1.6 -0.3
v -0.3 1.7 -0.3
v -0.3 1.8 -0.3
v -0.1 1.3 -0.3
v -0.1 1.6 -0.3
v 0 1.2 -0.3
v 0 1.4 -0.3
v 0 1.7 -0.3
v 0 1.8 -0.3
v 0.1 1.4 -0.3
v 0.1 1.7 -0.3
v -0.2 0 0.1
v 0 0 0.1
v -0.2 0 -2.98023e-08
v -0.1 0 -2.98023e-08
v -0.2 0 -0.1
v -0.1 0 -0.1
v 0 0 -0.1
v -0.2 0.1 0.2
v -0.1 0.1 0.2
v 0 0.1 0.2
v -0.3 0.1 0.1
v -0.2 0.1 0.1
v -0.1 0.1 0.1
v 0 0.1 0.1
v -0.3 0.1 -2.98023e-08
v -0.2 0.1 -2.98023e-08
v -0.1 0.4 0.2
v 0 0.4 0.2
v -0.1 0.4 0.1
v 0 0.4 0.1
v -0.3 0.5 0.1
v -0.2 0.5 0.1
v -0.3 0.5 -2.98023e-08
v -0.2 0.5 -2.98023e-08
v -0.3 0.6 0.2
v -0.2 0.6 0.2
v -0.3 0.6 0.1
v -0.2 0.6 0.1
v -0.3 0.6 -2.98023e-08
v -0.2 0.6 -2.98023e-08
v -0.3 0.6 -0.1
v -0.2 0.6 -0.1
v -0.4 1.1 0.3
v -0.3 1.1 0.3
v -0.2 1.1 0.3
v -0.1 1.1 0.3
v -0.5 1.1 0.2
v -0.4 1.1 0.2
v -0.3 1.1 0.2
v -0.2 1.1 0.2
v -0.1 1.1 0.2
v -0.5 1.1 0.1
v -0.3 1.1 0.1
v -0.1 1.1 0.1
v 0 1.1 0.1
v -0.5 1.1 -2.98023e-08
v -0.4 1.1 -2.98023e-08
v -0.3 1.1 -2.98023e-08
v -0.1 1.1 -2.98023e-08
v 0 1.1 -2.98023e-08
v -0.4 1.1 -0.1
v -0.3 1.1 -0.1
v -0.1 1.1 -0.1
v 0 1.1 -0.1
v -0.4 1.1 -0.2
v -0.1 1.1 -0.2
v -0.1 1.2 0.3
v 0 1.2 0.3
v -0.1 1.2 0.2
v 0 1.2 0.2
v 0.1 1.2 0.2
v -0.1 1.2 0.1
v 0 1.2 0.1
v 0 1.2 -2.98023e-08
v -0.1 1.2 -0.1
v 0 1.2 -0.1
v -0.3 1.2 -0.2
v -0.1 1.2 -0.2
v 0 1.2 -0.2
v 0.1 1.2 -0.2
v -0.3 1.2 -0.3
v 0 1.2 -0.3
v -0.5 1.3 0.3
v -0.4 1.3 0.3
v -0.5 1.3 0.2
v -0.4 1.3 0.2
v -0.5 1.3 -2.98023e-08
v -0.4 1.3 -2.98023e-08
v -0.5 1.3 -0.1
v -0.4 1.3 -0.1
v -0.4 1.3 -0.2
v -0.3 1.3 -0.2
v -0.4 1.3 -0.3
v -0.3 1.3 -0.3
v 0 1.4 -0.2
v 0.1 1.4 -0.2
v 0 1.4 -0.3
v 0.1 1.4 -0.3
v 0 1.5 0.3
v 0.1 1.5 0.3
v 0 1.5 0.2
v 0.1 1.5 0.2
v -0.3 1.6 0.1
v -0.1 1.6 0.1
v -0.3 1.6 -2.98023e-08
v -0.2 1.6 -2.98023e-08
v -0.1 1.6 -2.98023e-08
v 0 1.6 -2.98023e-08
v -0.2 1.6 -0.1
v 0 1.6 -0.1
v -0.1 0.3 0.2
v 0 0.3 0.2
v -0.3 0.3 0.1
v -0.2 0.3 0.1
v -0.1 0.3 0.1
v 0 0.3 0.1
v -0.3 0.3 -2.98023e-08
v -0.2 0.3 -2.98023e-08
v -0.1 0.8 0.2
v 0 0.8 0.2
v -0.1 0.8 0.1
v 0 0.8 0.1
v -0.1 0.8 -2.98023e-08
v 0 0.8 -2.98023e-08
v -0.1 0.8 -0.1
v 0 0.8 -0.1
v -0.1 0.9 0.1
v 0 0.9 0.1
v -0.1 0.9 -2.98023e-08
v 0 0.9 -2.98023e-08
v -0.3 1 0.2
v -0.1 1 0.2
v -0.3 1 0.1
v -0.1 1 0.1
v -0.3 1.4 0.1
v -0.1 1.4 0.1
v -0.3 1.4 -2.98023e-08
v -0.2 1.4 -2.98023e-08
v -0.2 1.4 -0.1
v -0.1 1.4 -0.1
v -0.1 1.5 -2.98023e-08
v 0 1.5 -2.98023e-08
v -0.1 1.5 -0.1
v 0 1.5 -0.1
v -0.5 1.6 0.3
v -0.4 1.6 0.3
v -0.5 1.6 0.2
v -0.4 1.6 0.2
v -0.4 1.7 0.3
v -0.1 1.7 0.3
v 0.1 1.7 0.3
v -0.4 1.7 0.2
v -0.1 1.7 0.2
v 0.1 1.7 0.2
v -0.5 1.7 -2.98023e-08
v -0.4 1.7 -2.98023e-08
v -0.5 1.7 -0.1
v -0.4 1.7 -0.1
v -0.4 1.7 -0.2
v -0.3 1.7 -0.2
v 0 1.7 -0.2
v 0.1 1.7 -0.2
v -0.4 1.7 -0.3
v -0.3 1.7 -0.3
v 0 1.7 -0.3
v 0.1 1.7 -0.3
v -0.5 1.8 0.2
v -0.4 1.8 0.2
v 0 1.8 0.2
v 0.1 1.8 0.2
v -0.5 1.8 0.1
v -0.4 1.8 0.1
v 0 1.8 0.1
v 0.1 1.8 0.1
v -0.5 1.8 -2.98023e-08
v -0.4 1.8 -2.98023e-08
v -0.4 1.8 -0.1
v -0.3 1.8 -0.1
v -0.4 1.8 -0.2
v -0.3 1.8 -0.2
v 0 1.8 -0.2
v 0.1 1.8 -0.2
v -0.3 1.8 -0.3
v 0 1.8 -0.3
v -0.4 1.9 0.2
v -0.3 1.9 0.2
v -0.1 1.9 0.2
v 0 1.9 0.2
v -0.4 1.9 0.1
v -0.3 1.9 0.1
v -0.1 1.9 0.1
v 0 1.9 0.1
v -0.3 2 0.2
v -0.1 2 0.2
v -0.4 2 0.1
v -0.3 2 0.1
v -0.1 2 0.1
v 0 2 0.1
v -0.4 2 -0.1
v -0.3 2 -0.1
v -0.3 2 -0.2
v 0 2 -0.2

# faces
f 5/1/1 2/1/1 1/1/1
f 6/4/1 3/4/1 2/4/1
f 6/1/1 2/1/1 5/1/1
f 7/4/1 3/4/1 6/4/1
f 9/4/1 5/4/1 4/4/1
f 9/4/1 8/4/1 7/4/1
f 9/4/1 7/4/1 6/4/1
f 9/4/1 6/4/1 5/4/1
f 10/4/1 8/4/1 9/4/1
f 11/4/1 8/4/1 10/4/1
f 12/4/1 8/4/1 11/4/1
f 13/3/1 10/3/1 9/3/1
f 14/3/1 10/3/1 13/3/1
f 15/4/1 11/4/1 10/4/1
f 15/3/1 12/3/1 11/3/1
f 16/3/1 12/3/1 15/3/1
f 17/3/1 10/3/1 14/3/1
f 18/4/1 15/4/1 10/4/1
f 18/3/1 10/3/1 17/3/1
f 19/4/1 15/4/1 18/4/1
f 25/4/1 21/4/1 20/4/1
f 26/4/1 21/4/1 25/4/1
f 27/1/1 23/1/1 22/1/1
f 28/4/1 24/4/1 23/4/1
f 28/1/1 23/1/1 27/1/1
f 29/4/1 24/4/1 28/4/1
f 31/4/1 30/4/1 29/4/1
f 31/4/1 29/4/1 28/4/1
f 32/4/1 30/4/1 31/4/1
f 35/3/1 34/3/1 33/3/1
f 36/3/1 34/3/1 35/3/1
f 38/3/1 32/3/1 31/3/1
f 39/4/1 30/4/1 32/4/1
f 39/3/1 32/3/1 38/3/1
f 40/4/1 30/4/1 39/4/1
f 43/4/1 38/4/1 37/4/1
f 43/4/1 39/4/1 38/4/1
f 44/4/1 39/4/1 43/4/1
f 45/4/1 39/4/1 44/4/1
f 46/4/1 42/4/1 41/4/1
f 46/4/1 43/4/1 42/4/1
f 46/4/1 44/4/1 43/4/1
f 47/4/1 44/4/1 46/4/1
f 48/4/1 44/4/1 47/4/1
f 49/4/1 44/4/1 48/4/1
f 52/2/1 51/2/1 50/2/1
f 53/2/1 51/2/1 52/2/1
f 57/2/1 55/2/1 54/2/1
f 58/2/1 55/2/1 57/2/1
f 60/2/1 58/2/1 57/2/1
f 60/1/1 57/1/1 56/1/1
f 61/1/1 59/1/1 58/1/1
f 61/2/1 58/2/1 60/2/1
f 62/1/1 60/1/1 56/1/1
f 62/1/1 61/1/1 60/1/1
f 63/1/1 61/1/1 62/1/1
f 64/1/1 61/1/1 63/1/1
f 65/1/1 59/1/1 61/1/1
f 65/1/1 61/1/1 64/1/1
f 66/1/1 59/1/1 65/1/1
f 69/4/1 68/4/1 67/4/1
f 70/4/1 68/4/1 69/4/1
f 74/4/1 72/4/1 71/4/1
f 75/4/1 72/4/1 74/4/1
f 78/4/1 74/4/1 73/4/1
f 79/4/1 74/4/1 78/4/1
f 80/4/1 77/4/1 76/4/1
f 81/4/1 77/4/1 80/4/1
f 82/3/1 79/3/1 78/3/1
f 83/3/1 79/3/1 82/3/1
f 88/2/1 85/2/1 84/2/1
f 89/1/1 86/1/1 85/1/1
f 89/2/1 85/2/1 88/2/1
f 90/1/1 88/1/1 87/1/1
f 91/1/1 86/1/1 89/1/1
f 92/1/1 90/1/1 87/1/1
f 92/2/1 91/2/1 90/2/1
f 93/1/1 86/1/1 91/1/1
f 93/2/1 91/2/1 92/2/1
f 94/1/1 92/1/1 87/1/1
f 95/1/1 92/1/1 94/1/1
f 96/1/1 86/1/1 93/1/1
f 97/1/1 86/1/1 96/1/1
f 100/4/1 99/4/1 98/4/1
f 101/4/1 99/4/1 100/4/1
f 102/4/1 100/4/1 98/4/1
f 103/4/1 100/4/1 102/4/1
f 106/3/1 105/3/1 104/3/1
f 107/3/1 105/3/1 106/3/1
f 108/4/2 109/4/2 110/4/2
f 110/4/2 109/4/2 111/4/2
f 112/4/2 113/4/2 114/4/2
f 114/4/2 113/4/2 115/4/2
f 116/1/2 117/1/2 118/1/2
f 118/1/2 117/1/2 119/1/2
f 120/1/2 121/1/2 124/1/2
f 122/1/2 123/1/2 125/1/2
f 120/1/2 124/1/2 126/1/2
f 124/1/2 125/1/2 126/1/2
f 126/1/2 125/1/2 127/1/2
f 127/1/2 125/1/2 130/1/2
f 125/1/2 123/1/2 131/1/2
f 130/1/2 125/1/2 131/1/2
f 131/1/2 123/1/2 132/1/2
f 128/4/2 129/4/2 134/4/2
f 129/1/2 130/1/2 135/1/2
f 134/4/2 129/4/2 135/4/2
f 135/1/2 130/1/2 136/1/2
f 132/4/2 133/4/2 137/4/2
f 137/4/2 133/4/2 138/4/2
f 139/4/2 140/4/2 141/4/2
f 141/4/2 140/4/2 142/4/2
f 143/2/2 144/2/2 146/2/2
f 145/2/2 146/2/2 147/2/2
f 146/2/2 144/2/2 148/2/2
f 147/2/2 146/2/2 148/2/2
f 148/2/2 144/2/2 150/2/2
f 149/2/2 150/2/2 151/2/2
f 150/2/2 144/2/2 152/2/2
f 151/2/2 150/2/2 152/2/2
f 152/2/2 144/2/2 153/2/2
f 153/2/2 144/2/2 154/2/2
f 152/1/2 153/1/2 155/1/2
f 155/1/2 153/1/2 156/1/2
f 157/1/2 158/1/2 162/1/2
f 158/4/2 159/4/2 163/4/2
f 162/1/2 158/1/2 163/1/2
f 163/4/2 159/4/2 164/4/2
f 160/1/2 161/1/2 167/1/2
f 167/1/2 161/1/2 168/1/2
f 167/4/2 168/4/2 169/4/2
f 165/4/2 166/4/2 170/4/2
f 170/4/2 166/4/2 171/4/2
f 167/4/2 169/4/2 172/4/2
f 172/4/2 169/4/2 173/4/2
f 174/4/2 175/4/2 178/4/2
f 178/4/2 175/4/2 179/4/2
f 176/4/2 177/4/2 180/4/2
f 177/4/2 178/4/2 180/4/2
f 180/4/2 178/4/2 181/4/2
f 181/4/2 178/4/2 182/4/2
f 181/3/2 182/3/2 183/3/2
f 183/3/2 182/3/2 184/3/2
f 185/4/2 186/4/2 187/4/2
f 187/4/2 186/4/2 188/4/2
f 187/1/2 188/1/2 189/1/2
f 188/4/2 186/4/2 190/4/2
f 189/1/2 188/1/2 190/1/2
f 190/4/2 186/4/2 191/4/2
f 189/4/2 190/4/2 194/4/2
f 191/4/2 192/4/2 194/4/2
f 190/4/2 191/4/2 194/4/2
f 194/4/2 192/4/2 195/4/2
f 195/4/2 192/4/2 196/4/2
f 193/4/2 194/4/2 197/4/2
f 194/4/2 195/4/2 197/4/2
f 197/4/2 195/4/2 198/4/2
f 196/4/2 192/4/2 199/4/2
f 195/3/2 196/3/2 199/3/2
f 199/4/2 192/4/2 200/4/2
f 198/4/2 195/4/2 201/4/2
f 195/3/2 199/3/2 202/3/2
f 201/4/2 195/4/2 202/4/2
f 202/3/2 199/3/2 203/3/2
f 208/4/3 205/4/3 204/4/3
f 209/3/3 206/3/3 205/3/3
f 211/4/3 208/4/3 207/4/3
f 212/4/3 208/4/3 211/4/3
f 213/1/3 212/1/3 211/1/3
f 214/4/3 208/4/3 212/4/3
f 214/1/3 212/1/3 213/1/3
f 215/4/3 214/4/3 213/4/3
f 216/4/3 208/4/3 214/4/3
f 216/4/3 214/4/3 215/4/3
f 217/4/3 205/4/3 208/4/3
f 217/4/3 208/4/3 216/4/3
f 218/3/3 210/3/3 209/3/3
f 218/4/3 205/4/3 217/4/3
f 218/3/3 209/3/3 205/3/3
f 219/3/3 210/3/3 218/3/3
f 220/1/3 217/1/3 216/1/3
f 221/4/3 219/4/3 218/4/3
f 221/1/3 217/1/3 220/1/3
f 221/4/3 218/4/3 217/4/3
f 222/4/3 219/4/3 221/4/3
f 223/4/3 219/4/3 222/4/3
f 224/4/3 219/4/3 223/4/3
f 229/1/3 226/1/3 225/1/3
f 230/1/3 226/1/3 229/1/3
f 231/3/3 228/3/3 227/3/3
f 232/3/3 228/3/3 231/3/3
f 233/3/3 228/3/3 232/3/3
f 237/4/3 234/4/3 233/4/3
f 240/1/3 236/1/3 235/1/3
f 241/1/3 240/1/3 239/1/3
f 242/1/3 240/1/3 241/1/3
f 243/1/3 240/1/3 242/1/3
f 244/1/3 236/1/3 240/1/3
f 244/1/3 240/1/3 243/1/3
f 245/1/3 236/1/3 244/1/3
f 246/3/3 233/3/3 232/3/3
f 247/4/3 238/4/3 237/4/3
f 247/3/3 233/3/3 246/3/3
f 247/4/3 237/4/3 233/4/3
f 248/4/3 238/4/3 247/4/3
f 249/4/3 238/4/3 248/4/3
f 250/2/3 242/2/3 241/2/3
f 251/2/3 242/2/3 250/2/3
f 252/2/3 244/2/3 243/2/3
f 253/2/3 244/2/3 252/2/3
f 258/4/3 248/4/3 247/4/3
f 258/4/3 247/4/3 246/4/3
f 259/4/3 248/4/3 258/4/3
f 260/4/3 255/4/3 254/4/3
f 261/1/3 256/1/3 255/1/3
f 261/4/3 255/4/3 260/4/3
f 262/4/3 257/4/3 256/4/3
f 262/1/3 256/1/3 261/1/3
f 263/4/3 257/4/3 262/4/3
f 264/4/3 258/4/3 246/4/3
f 265/4/3 258/4/3 264/4/3
f 274/4/3 267/4/3 266/4/3
f 275/4/3 267/4/3 274/4/3
f 277/2/3 269/2/3 268/2/3
f 278/2/3 269/2/3 277/2/3
f 279/2/3 271/2/3 270/2/3
f 280/2/3 271/2/3 279/2/3
f 281/2/3 277/2/3 276/2/3
f 286/1/3 273/1/3 272/1/3
f 287/1/3 273/1/3 286/1/3
f 291/2/3 281/2/3 276/2/3
f 292/2/3 281/2/3 291/2/3
f 293/2/3 283/2/3 282/2/3
f 294/2/3 283/2/3 293/2/3
f 295/1/3 285/1/3 284/1/3
f 296/1/3 285/1/3 295/1/3
f 297/1/3 288/1/3 287/1/3
f 298/1/3 288/1/3 297/1/3
f 299/3/3 290/3/3 289/3/3
f 300/3/3 290/3/3 299/3/3
f 303/4/3 302/4/3 301/4/3
f 304/4/3 302/4/3 303/4/3
f 307/4/3 306/4/3 305/4/3
f 308/4/3 306/4/3 307/4/3
f 309/4/3 306/4/3 308/4/3
f 310/4/3 306/4/3 309/4/3
f 311/3/4 312/3/4 313/3/4
f 313/3/4 312/3/4 314/3/4
f 315/4/4 316/4/4 319/4/4
f 319/4/4 316/4/4 320/4/4
f 317/4/4 318/4/4 321/4/4
f 321/4/4 318/4/4 322/4/4
f 323/2/4 324/2/4 327/2/4
f 327/2/4 324/2/4 328/2/4
f 325/2/4 326/2/4 329/2/4
f 329/2/4 326/2/4 330/2/4
f 331/1/4 332/1/4 335/1/4
f 335/1/4 332/1/4 336/1/4
f 333/4/4 334/4/4 337/4/4
f 337/4/4 334/4/4 338/4/4
f 339/4/4 340/4/4 342/4/4
f 340/3/4 341/3/4 343/3/4
f 342/4/4 340/4/4 343/4/4
f 343/3/4 341/3/4 344/3/4
f 345/4/4 346/4/4 349/4/4
f 349/4/4 346/4/4 350/4/4
f 350/4/4 346/4/4 351/4/4
f 347/1/4 348/1/4 353/1/4
f 352/1/4 353/1/4 354/1/4
f 353/1/4 348/1/4 355/1/4
f 354/1/4 353/1/4 355/1/4
f 355/1/4 348/1/4 356/1/4
f 354/2/4 355/2/4 358/2/4
f 358/2/4 355/2/4 359/2/4
f 356/4/4 357/4/4 360/4/4
f 360/4/4 357/4/4 361/4/4
f 362/4/4 363/4/4 366/4/4
f 366/4/4 363/4/4 367/4/4
f 364/4/4 365/4/4 368/4/4
f 368/4/4 365/4/4 369/4/4
f 362/4/4 366/4/4 372/4/4
f 372/4/4 366/4/4 373/4/4
f 369/4/4 370/4/4 377/4/4
f 370/3/4 371/3/4 378/3/4
f 377/4/4 370/4/4 378/4/4
f 378/3/4 371/3/4 379/3/4
f 374/4/4 375/4/4 380/4/4
f 380/4/4 375/4/4 381/4/4
f 376/3/4 377/3/4 382/3/4
f 382/3/4 377/3/4 383/3/4
f 384/4/4 385/4/4 387/4/4
f 387/4/4 385/4/4 388/4/4
f 388/4/4 385/4/4 389/4/4
f 386/4/4 387/4/4 391/4/4
f 387/3/4 388/3/4 391/3/4
f 389/4/4 390/4/4 392/4/4
f 391/3/4 388/3/4 392/3/4
f 388/4/4 389/4/4 392/4/4
f 386/4/4 391/4/4 393/4/4
f 391/4/4 392/4/4 393/4/4
f 393/4/4 392/4/4 394/4/4
f 392/4/4 390/4/4 395/4/4
f 394/4/4 392/4/4 395/4/4
f 395/4/4 390/4/4 396/4/4
f 394/4/4 395/4/4 397/4/4
f 397/4/4 395/4/4 398/4/4
f 401/2/5 400/2/5 399/2/5
f 402/2/5 400/2/5 401/2/5
f 403/1/5 402/1/5 401/1/5
f 404/2/5 400/2/5 402/2/5
f 404/1/5 402/1/5 403/1/5
f 405/2/5 400/2/5 404/2/5
f 410/1/5 407/1/5 406/1/5
f 411/2/5 408/2/5 407/2/5
f 411/1/5 407/1/5 410/1/5
f 412/2/5 408/2/5 411/2/5
f 413/2/5 410/2/5 409/2/5
f 414/2/5 410/2/5 413/2/5
f 417/2/5 416/2/5 415/2/5
f 418/2/5 416/2/5 417/2/5
f 421/2/5 420/2/5 419/2/5
f 422/2/5 420/2/5 421/2/5
f 425/1/5 424/1/5 423/1/5
f 426/1/5 424/1/5 425/1/5
f 429/1/5 428/1/5 427/1/5
f 430/1/5 428/1/5 429/1/5
f 436/4/5 432/4/5 431/4/5
f 437/1/5 433/1/5 432/1/5
f 437/4/5 432/4/5 436/4/5
f 438/4/5 434/4/5 433/4/5
f 438/1/5 433/1/5 437/1/5
f 439/4/5 434/4/5 438/4/5
f 440/1/5 437/1/5 436/1/5
f 440/1/5 436/1/5 435/1/5
f 440/1/5 439/1/5 438/1/5
f 440/1/5 438/1/5 437/1/5
f 441/1/5 439/1/5 440/1/5
f 442/1/5 439/1/5 441/1/5
f 444/4/5 441/4/5 440/4/5
f 445/4/5 441/4/5 444/4/5
f 446/4/5 441/4/5 445/4/5
f 447/1/5 443/1/5 442/1/5
f 448/1/5 443/1/5 447/1/5
f 449/1/5 446/1/5 445/1/5
f 450/1/5 446/1/5 449/1/5
f 451/4/5 448/4/5 447/4/5
f 452/4/5 448/4/5 451/4/5
f 453/4/5 450/4/5 449/4/5
f 453/4/5 451/4/5 450/4/5
f 454/4/5 451/4/5 453/4/5
f 457/1/5 456/1/5 455/1/5
f 458/1/5 456/1/5 457/1/5
f 460/4/5 458/4/5 457/4/5
f 460/4/5 459/4/5 458/4/5
f 461/4/5 459/4/5 460/4/5
f 462/4/5 459/4/5 461/4/5
f 464/4/5 459/4/5 462/4/5
f 466/4/5 464/4/5 463/4/5
f 467/4/5 459/4/5 464/4/5
f 467/4/5 464/4/5 466/4/5
f 468/4/5 459/4/5 467/4/5
f 469/4/5 466/4/5 465/4/5
f 469/4/5 467/4/5 466/4/5
f 470/4/5 467/4/5 469/4/5
f 473/4/5 472/4/5 471/4/5
f 474/4/5 472/4/5 473/4/5
f 477/4/5 476/4/5 475/4/5
f 478/4/5 476/4/5 477/4/5
f 481/4/5 480/4/5 479/4/5
f 482/4/5 480/4/5 481/4/5
f 485/4/5 484/4/5 483/4/5
f 486/4/5 484/4/5 485/4/5
f 489/4/5 488/4/5 487/4/5
f 490/4/5 488/4/5 489/4/5
f 493/4/5 492/4/5 491/4/5
f 494/4/5 492/4/5 493/4/5
f 495/4/5 492/4/5 494/4/5
f 497/4/5 496/4/5 495/4/5
f 497/4/5 495/4/5 494/4/5
f 498/4/5 496/4/5 497/4/5
f 499/2/6 500/2/6 503/2/6
f 503/2/6 500/2/6 504/2/6
f 501/2/6 502/2/6 505/2/6
f 505/2/6 502/2/6 506/2/6
f 507/2/6 508/2/6 509/2/6
f 509/2/6 508/2/6 510/2/6
f 511/2/6 512/2/6 513/2/6
f 513/2/6 512/2/6 514/2/6
f 515/1/6 516/1/6 517/1/6
f 517/1/6 516/1/6 518/1/6
f 519/1/6 520/1/6 521/1/6
f 521/1/6 520/1/6 522/1/6
f 523/4/6 524/4/6 525/4/6
f 525/4/6 524/4/6 526/4/6
f 526/4/6 524/4/6 527/4/6
f 527/4/6 524/4/6 528/4/6
f 529/4/6 530/4/6 531/4/6
f 531/4/6 530/4/6 532/4/6
f 533/3/6 534/3/6 535/3/6
f 535/3/6 534/3/6 536/3/6
f 537/3/6 538/3/6 540/3/6
f 538/4/6 539/4/6 541/4/6
f 540/3/6 538/3/6 541/3/6
f 541/4/6 539/4/6 542/4/6
f 543/3/6 544/3/6 545/3/6
f 545/3/6 544/3/6 546/3/6
f 547/4/6 548/4/6 551/4/6
f 551/4/6 548/4/6 552/4/6
f 549/4/6 550/4/6 553/4/6
f 553/4/6 550/4/6 554/4/6
f 555/3/6 556/3/6 559/3/6
f 559/3/6 556/3/6 560/3/6
f 557/4/6 558/4/6 561/4/6
f 561/4/6 558/4/6 562/4/6
f 559/4/6 560/4/6 563/4/6
f 563/4/6 560/4/6 564/4/6
f 565/4/6 566/4/6 567/4/6
f 567/4/6 566/4/6 568/4/6
f 561/3/6 562/3/6 569/3/6
f 569/3/6 562/3/6 570/3/6
f 568/4/6 569/4/6 571/4/6
f 571/4/6 569/4/6 572/4/6
f 573/4/6 574/4/6 577/4/6
f 577/4/6 574/4/6 578/4/6
f 575/4/6 576/4/6 579/4/6
f 579/4/6 576/4/6 580/4/6
f 581/4/6 582/4/6 584/4/6
f 584/4/6 582/4/6 585/4/6
f 583/4/6 584/4/6 587/4/6
f 585/3/6 586/3/6 588/3/6
f 587/4/6 584/4/6 588/4/6
f 584/3/6 585/3/6 588/3/6
f 588/3/6 586/3/6 589/3/6
f 589/3/6 586/3/6 590/3/6
